<?xml version="1.0" encoding="UTF-8" standalone="no"?>
<!DOCTYPE svg PUBLIC "-//W3C//DTD SVG 1.1//EN"
 "http://www.w3.org/Graphics/SVG/1.1/DTD/svg11.dtd">
<!-- Generated by graphviz version 2.40.1 (20161225.0304)
 -->
<!-- Title: dependencies Pages: 1 -->
<svg width="4381pt" height="349pt"
 viewBox="0.00 0.00 4381.00 349.00" xmlns="http://www.w3.org/2000/svg" xmlns:xlink="http://www.w3.org/1999/xlink">
<g id="graph0" class="graph" transform="scale(1 1) rotate(0) translate(4 345)">
<title>dependencies</title>
<polygon fill="#ffffff" stroke="transparent" points="-4,4 -4,-345 4377,-345 4377,4 -4,4"/>
<text text-anchor="start" x="2165.5091" y="-42.4" font-family="sans-serif" font-weight="bold" font-size="14.00" fill="#000000">Legend</text>
<polygon fill="#ffffb3" stroke="transparent" points="1952.5,-10 1952.5,-30 1972.5,-30 1972.5,-10 1952.5,-10"/>
<text text-anchor="start" x="1976.129" y="-15.4" font-family="sans-serif" font-size="14.00" fill="#000000"> &#160;Declarations</text>
<polygon fill="#8dd3c7" stroke="transparent" points="2065.5,-10 2065.5,-30 2085.5,-30 2085.5,-10 2065.5,-10"/>
<text text-anchor="start" x="2089.2251" y="-15.4" font-family="sans-serif" font-size="14.00" fill="#000000"> &#160;Module</text>
<polygon fill="#80b1d3" stroke="transparent" points="2151.5,-10 2151.5,-30 2171.5,-30 2171.5,-10 2151.5,-10"/>
<text text-anchor="start" x="2175.2812" y="-15.4" font-family="sans-serif" font-size="14.00" fill="#000000"> &#160;Bootstrap</text>
<polygon fill="#fdb462" stroke="transparent" points="2248.5,-10 2248.5,-30 2268.5,-30 2268.5,-10 2248.5,-10"/>
<text text-anchor="start" x="2272.1732" y="-15.4" font-family="sans-serif" font-size="14.00" fill="#000000"> &#160;Providers</text>
<polygon fill="#fb8072" stroke="transparent" points="2344.5,-10 2344.5,-30 2364.5,-30 2364.5,-10 2344.5,-10"/>
<text text-anchor="start" x="2368.2258" y="-15.4" font-family="sans-serif" font-size="14.00" fill="#000000"> &#160;Exports</text>
<g id="clust1" class="cluster">
<title>cluster_D3ngComponentsModule</title>
<polygon fill="none" stroke="#000000" stroke-dasharray="1,5" points="8,-70 8,-333 4365,-333 4365,-70 8,-70"/>
</g>
<g id="clust2" class="cluster">
<title>cluster_D3ngComponentsModule_declarations</title>
<polygon fill="none" stroke="#000000" points="1542,-143 1542,-195 4357,-195 4357,-143 1542,-143"/>
</g>
<g id="clust4" class="cluster">
<title>cluster_D3ngComponentsModule_D3ngParallelCoordinatesComponent_providers</title>
<polygon fill="none" stroke="#000000" points="3185,-78 3185,-130 3517,-130 3517,-78 3185,-78"/>
</g>
<g id="clust17" class="cluster">
<title>cluster_D3ngComponentsModule_imports</title>
<polygon fill="none" stroke="#000000" points="16,-143 16,-195 1534,-195 1534,-143 16,-143"/>
</g>
<g id="clust18" class="cluster">
<title>cluster_D3ngComponentsModule_exports</title>
<polygon fill="none" stroke="#000000" points="453,-273 453,-325 3317,-325 3317,-273 453,-273"/>
</g>
<!-- D3ngListComponent -->
<g id="node1" class="node">
<title>D3ngListComponent</title>
<polygon fill="#ffffb3" stroke="#000000" points="4349.2176,-187 4214.7824,-187 4214.7824,-151 4349.2176,-151 4349.2176,-187"/>
<text text-anchor="middle" x="4282" y="-164.8" font-family="Times,serif" font-size="14.00" fill="#000000">D3ngListComponent</text>
</g>
<!-- D3ngComponentsModule -->
<g id="node15" class="node">
<title>D3ngComponentsModule</title>
<polygon fill="#8dd3c7" stroke="#000000" points="1929.934,-252 1926.934,-256 1905.934,-256 1902.934,-252 1768.066,-252 1768.066,-216 1929.934,-216 1929.934,-252"/>
<text text-anchor="middle" x="1849" y="-229.8" font-family="Times,serif" font-size="14.00" fill="#000000">D3ngComponentsModule</text>
</g>
<!-- D3ngListComponent&#45;&gt;D3ngComponentsModule -->
<g id="edge1" class="edge">
<title>D3ngListComponent&#45;&gt;D3ngComponentsModule</title>
<path fill="none" stroke="#000000" d="M4282,-187.1289C4282,-207.5724 4282,-238 4282,-238 4282,-238 1939.9503,-238 1939.9503,-238"/>
<polygon fill="#000000" stroke="#000000" points="1939.9503,-234.5001 1929.9503,-238 1939.9502,-241.5001 1939.9503,-234.5001"/>
</g>
<!-- D3ngParallelCoordinatesComponent -->
<g id="node2" class="node">
<title>D3ngParallelCoordinatesComponent</title>
<polygon fill="#ffffb3" stroke="#000000" points="4196.3501,-187 3973.6499,-187 3973.6499,-151 4196.3501,-151 4196.3501,-187"/>
<text text-anchor="middle" x="4085" y="-164.8" font-family="Times,serif" font-size="14.00" fill="#000000">D3ngParallelCoordinatesComponent</text>
</g>
<!-- D3ngParallelCoordinatesComponent&#45;&gt;D3ngComponentsModule -->
<g id="edge2" class="edge">
<title>D3ngParallelCoordinatesComponent&#45;&gt;D3ngComponentsModule</title>
<path fill="none" stroke="#000000" d="M4085,-187.308C4085,-207.1455 4085,-236 4085,-236 4085,-236 1939.9014,-236 1939.9014,-236"/>
<polygon fill="#000000" stroke="#000000" points="1939.9014,-232.5001 1929.9014,-236 1939.9014,-239.5001 1939.9014,-232.5001"/>
</g>
<!-- D3ngScatterPlotComponent -->
<g id="node3" class="node">
<title>D3ngScatterPlotComponent</title>
<polygon fill="#ffffb3" stroke="#000000" points="3955.871,-187 3782.129,-187 3782.129,-151 3955.871,-151 3955.871,-187"/>
<text text-anchor="middle" x="3869" y="-164.8" font-family="Times,serif" font-size="14.00" fill="#000000">D3ngScatterPlotComponent</text>
</g>
<!-- D3ngScatterPlotComponent&#45;&gt;D3ngComponentsModule -->
<g id="edge4" class="edge">
<title>D3ngScatterPlotComponent&#45;&gt;D3ngComponentsModule</title>
<path fill="none" stroke="#000000" d="M3869,-187.1061C3869,-206.3391 3869,-234 3869,-234 3869,-234 1939.7459,-234 1939.7459,-234"/>
<polygon fill="#000000" stroke="#000000" points="1939.746,-230.5001 1929.7459,-234 1939.7459,-237.5001 1939.746,-230.5001"/>
</g>
<!-- D3ngTreeMapComponent -->
<g id="node4" class="node">
<title>D3ngTreeMapComponent</title>
<polygon fill="#ffffb3" stroke="#000000" points="3763.7408,-187 3600.2592,-187 3600.2592,-151 3763.7408,-151 3763.7408,-187"/>
<text text-anchor="middle" x="3682" y="-164.8" font-family="Times,serif" font-size="14.00" fill="#000000">D3ngTreeMapComponent</text>
</g>
<!-- D3ngTreeMapComponent&#45;&gt;D3ngComponentsModule -->
<g id="edge6" class="edge">
<title>D3ngTreeMapComponent&#45;&gt;D3ngComponentsModule</title>
<path fill="none" stroke="#000000" d="M3682,-187.2222C3682,-205.8285 3682,-232 3682,-232 3682,-232 1939.8295,-232 1939.8295,-232"/>
<polygon fill="#000000" stroke="#000000" points="1939.8295,-228.5001 1929.8295,-232 1939.8295,-235.5001 1939.8295,-228.5001"/>
</g>
<!-- D3ngRadialEdgeBundlingComponent -->
<g id="node5" class="node">
<title>D3ngRadialEdgeBundlingComponent</title>
<polygon fill="#ffffb3" stroke="#000000" points="3581.871,-187 3352.129,-187 3352.129,-151 3581.871,-151 3581.871,-187"/>
<text text-anchor="middle" x="3467" y="-164.8" font-family="Times,serif" font-size="14.00" fill="#000000">D3ngRadialEdgeBundlingComponent</text>
</g>
<!-- D3ngRadialEdgeBundlingComponent&#45;&gt;D3ngComponentsModule -->
<g id="edge8" class="edge">
<title>D3ngRadialEdgeBundlingComponent&#45;&gt;D3ngComponentsModule</title>
<path fill="none" stroke="#000000" d="M3467,-187.302C3467,-205.2699 3467,-230 3467,-230 3467,-230 1939.7904,-230 1939.7904,-230"/>
<polygon fill="#000000" stroke="#000000" points="1939.7905,-226.5001 1929.7904,-230 1939.7904,-233.5001 1939.7905,-226.5001"/>
</g>
<!-- D3ngChordDiagramComponent -->
<g id="node6" class="node">
<title>D3ngChordDiagramComponent</title>
<polygon fill="#ffffb3" stroke="#000000" points="3334.4142,-187 3137.5858,-187 3137.5858,-151 3334.4142,-151 3334.4142,-187"/>
<text text-anchor="middle" x="3236" y="-164.8" font-family="Times,serif" font-size="14.00" fill="#000000">D3ngChordDiagramComponent</text>
</g>
<!-- D3ngChordDiagramComponent&#45;&gt;D3ngComponentsModule -->
<g id="edge10" class="edge">
<title>D3ngChordDiagramComponent&#45;&gt;D3ngComponentsModule</title>
<path fill="none" stroke="#000000" d="M3145.4841,-187.0225C3145.4841,-204.3734 3145.4841,-228 3145.4841,-228 3145.4841,-228 1940.1009,-228 1940.1009,-228"/>
<polygon fill="#000000" stroke="#000000" points="1940.1009,-224.5001 1930.1009,-228 1940.1008,-231.5001 1940.1009,-224.5001"/>
</g>
<!-- D3ngForceGraphComponent -->
<g id="node7" class="node">
<title>D3ngForceGraphComponent</title>
<polygon fill="#ffffb3" stroke="#000000" points="3119.7934,-187 2940.2066,-187 2940.2066,-151 3119.7934,-151 3119.7934,-187"/>
<text text-anchor="middle" x="3030" y="-164.8" font-family="Times,serif" font-size="14.00" fill="#000000">D3ngForceGraphComponent</text>
</g>
<!-- D3ngForceGraphComponent&#45;&gt;D3ngComponentsModule -->
<g id="edge12" class="edge">
<title>D3ngForceGraphComponent&#45;&gt;D3ngComponentsModule</title>
<path fill="none" stroke="#000000" d="M3030,-187.0352C3030,-203.7344 3030,-226 3030,-226 3030,-226 1940.1749,-226 1940.1749,-226"/>
<polygon fill="#000000" stroke="#000000" points="1940.1749,-222.5001 1930.1749,-226 1940.1749,-229.5001 1940.1749,-222.5001"/>
</g>
<!-- D3ngCollapsibleIndentedTreeComponent -->
<g id="node8" class="node">
<title>D3ngCollapsibleIndentedTreeComponent</title>
<polygon fill="#ffffb3" stroke="#000000" points="2922.3347,-187 2671.6653,-187 2671.6653,-151 2922.3347,-151 2922.3347,-187"/>
<text text-anchor="middle" x="2797" y="-164.8" font-family="Times,serif" font-size="14.00" fill="#000000">D3ngCollapsibleIndentedTreeComponent</text>
</g>
<!-- D3ngCollapsibleIndentedTreeComponent&#45;&gt;D3ngComponentsModule -->
<g id="edge14" class="edge">
<title>D3ngCollapsibleIndentedTreeComponent&#45;&gt;D3ngComponentsModule</title>
<path fill="none" stroke="#000000" d="M2692.6015,-187.0091C2692.6015,-203.0494 2692.6015,-224 2692.6015,-224 2692.6015,-224 1939.8881,-224 1939.8881,-224"/>
<polygon fill="#000000" stroke="#000000" points="1939.8881,-220.5001 1929.8881,-224 1939.888,-227.5001 1939.8881,-220.5001"/>
</g>
<!-- D3ngSourceDirective -->
<g id="node9" class="node">
<title>D3ngSourceDirective</title>
<polygon fill="#ffffb3" stroke="#000000" points="2654.0618,-187 2515.9382,-187 2515.9382,-151 2654.0618,-151 2654.0618,-187"/>
<text text-anchor="middle" x="2585" y="-164.8" font-family="Times,serif" font-size="14.00" fill="#000000">D3ngSourceDirective</text>
</g>
<!-- D3ngSourceDirective&#45;&gt;D3ngComponentsModule -->
<g id="edge16" class="edge">
<title>D3ngSourceDirective&#45;&gt;D3ngComponentsModule</title>
<path fill="none" stroke="#000000" d="M2522.3273,-187.2396C2522.3273,-202.5706 2522.3273,-222 2522.3273,-222 2522.3273,-222 1939.8843,-222 1939.8843,-222"/>
<polygon fill="#000000" stroke="#000000" points="1939.8844,-218.5001 1929.8843,-222 1939.8843,-225.5001 1939.8844,-218.5001"/>
</g>
<!-- D3ngHistogramComponent -->
<g id="node10" class="node">
<title>D3ngHistogramComponent</title>
<polygon fill="#ffffb3" stroke="#000000" points="2497.5378,-187 2326.4622,-187 2326.4622,-151 2497.5378,-151 2497.5378,-187"/>
<text text-anchor="middle" x="2412" y="-164.8" font-family="Times,serif" font-size="14.00" fill="#000000">D3ngHistogramComponent</text>
</g>
<!-- D3ngHistogramComponent&#45;&gt;D3ngComponentsModule -->
<g id="edge17" class="edge">
<title>D3ngHistogramComponent&#45;&gt;D3ngComponentsModule</title>
<path fill="none" stroke="#000000" d="M2412,-187.1243C2412,-201.7832 2412,-220 2412,-220 2412,-220 1939.9638,-220 1939.9638,-220"/>
<polygon fill="#000000" stroke="#000000" points="1939.9638,-216.5001 1929.9638,-220 1939.9637,-223.5001 1939.9638,-216.5001"/>
</g>
<!-- D3ngGroupsComponent -->
<g id="node11" class="node">
<title>D3ngGroupsComponent</title>
<polygon fill="#ffffb3" stroke="#000000" points="2307.6512,-187 2154.3488,-187 2154.3488,-151 2307.6512,-151 2307.6512,-187"/>
<text text-anchor="middle" x="2231" y="-164.8" font-family="Times,serif" font-size="14.00" fill="#000000">D3ngGroupsComponent</text>
</g>
<!-- D3ngGroupsComponent&#45;&gt;D3ngComponentsModule -->
<g id="edge18" class="edge">
<title>D3ngGroupsComponent&#45;&gt;D3ngComponentsModule</title>
<path fill="none" stroke="#000000" d="M2215.5657,-187.2458C2215.5657,-201.1772 2215.5657,-218 2215.5657,-218 2215.5657,-218 1939.8982,-218 1939.8982,-218"/>
<polygon fill="#000000" stroke="#000000" points="1939.8982,-214.5001 1929.8982,-218 1939.8982,-221.5001 1939.8982,-214.5001"/>
</g>
<!-- D3ngGroupSelectionComponent -->
<g id="node12" class="node">
<title>D3ngGroupSelectionComponent</title>
<polygon fill="#ffffb3" stroke="#000000" points="2136.3046,-187 1935.6954,-187 1935.6954,-151 2136.3046,-151 2136.3046,-187"/>
<text text-anchor="middle" x="2036" y="-164.8" font-family="Times,serif" font-size="14.00" fill="#000000">D3ngGroupSelectionComponent</text>
</g>
<!-- D3ngGroupSelectionComponent&#45;&gt;D3ngComponentsModule -->
<g id="edge19" class="edge">
<title>D3ngGroupSelectionComponent&#45;&gt;D3ngComponentsModule</title>
<path fill="none" stroke="#000000" d="M1935.4591,-169C1928.3326,-169 1923.8829,-169 1923.8829,-169 1923.8829,-169 1923.8829,-205.8939 1923.8829,-205.8939"/>
<polygon fill="#000000" stroke="#000000" points="1920.383,-205.8938 1923.8829,-215.8939 1927.383,-205.8939 1920.383,-205.8938"/>
</g>
<!-- D3ngMapComponent -->
<g id="node13" class="node">
<title>D3ngMapComponent</title>
<polygon fill="#ffffb3" stroke="#000000" points="1918.0982,-187 1779.9018,-187 1779.9018,-151 1918.0982,-151 1918.0982,-187"/>
<text text-anchor="middle" x="1849" y="-164.8" font-family="Times,serif" font-size="14.00" fill="#000000">D3ngMapComponent</text>
</g>
<!-- D3ngMapComponent&#45;&gt;D3ngComponentsModule -->
<g id="edge20" class="edge">
<title>D3ngMapComponent&#45;&gt;D3ngComponentsModule</title>
<path fill="none" stroke="#000000" d="M1849,-187.1061C1849,-187.1061 1849,-205.991 1849,-205.991"/>
<polygon fill="#000000" stroke="#000000" points="1845.5001,-205.9909 1849,-215.991 1852.5001,-205.991 1845.5001,-205.9909"/>
</g>
<!-- D3ngBubbleHistogramComponent -->
<g id="node14" class="node">
<title>D3ngBubbleHistogramComponent</title>
<polygon fill="#ffffb3" stroke="#000000" points="1761.979,-187 1550.021,-187 1550.021,-151 1761.979,-151 1761.979,-187"/>
<text text-anchor="middle" x="1656" y="-164.8" font-family="Times,serif" font-size="14.00" fill="#000000">D3ngBubbleHistogramComponent</text>
</g>
<!-- D3ngBubbleHistogramComponent&#45;&gt;D3ngComponentsModule -->
<g id="edge22" class="edge">
<title>D3ngBubbleHistogramComponent&#45;&gt;D3ngComponentsModule</title>
<path fill="none" stroke="#000000" d="M1762.3598,-169C1769.6113,-169 1774.1171,-169 1774.1171,-169 1774.1171,-169 1774.1171,-205.8939 1774.1171,-205.8939"/>
<polygon fill="#000000" stroke="#000000" points="1770.6172,-205.8938 1774.1171,-215.8939 1777.6172,-205.8939 1770.6172,-205.8938"/>
</g>
<!-- D3ngListComponent  -->
<g id="node28" class="node">
<title>D3ngListComponent </title>
<polygon fill="#fb8072" stroke="#000000" points="3308.7177,-317 3171.2823,-317 3171.2823,-281 3308.7177,-281 3308.7177,-317"/>
<text text-anchor="middle" x="3240" y="-294.8" font-family="Times,serif" font-size="14.00" fill="#000000">D3ngListComponent </text>
</g>
<!-- D3ngComponentsModule&#45;&gt;D3ngListComponent  -->
<g id="edge34" class="edge">
<title>D3ngComponentsModule&#45;&gt;D3ngListComponent </title>
<path fill="none" stroke="#000000" stroke-dasharray="5,2" d="M1929.7984,-240C2226.6719,-240 3240,-240 3240,-240 3240,-240 3240,-270.9775 3240,-270.9775"/>
<polygon fill="#000000" stroke="#000000" points="3236.5001,-270.9774 3240,-280.9775 3243.5001,-270.9775 3236.5001,-270.9774"/>
</g>
<!-- D3ngParallelCoordinatesComponent  -->
<g id="node29" class="node">
<title>D3ngParallelCoordinatesComponent </title>
<polygon fill="#fb8072" stroke="#000000" points="3153.3503,-317 2926.6497,-317 2926.6497,-281 3153.3503,-281 3153.3503,-317"/>
<text text-anchor="middle" x="3040" y="-294.8" font-family="Times,serif" font-size="14.00" fill="#000000">D3ngParallelCoordinatesComponent </text>
</g>
<!-- D3ngComponentsModule&#45;&gt;D3ngParallelCoordinatesComponent  -->
<g id="edge35" class="edge">
<title>D3ngComponentsModule&#45;&gt;D3ngParallelCoordinatesComponent </title>
<path fill="none" stroke="#000000" stroke-dasharray="5,2" d="M1930.0769,-242C2181.8726,-242 2933.5892,-242 2933.5892,-242 2933.5892,-242 2933.5892,-270.9648 2933.5892,-270.9648"/>
<polygon fill="#000000" stroke="#000000" points="2930.0893,-270.9648 2933.5892,-280.9648 2937.0893,-270.9649 2930.0893,-270.9648"/>
</g>
<!-- D3ngScatterPlotComponent  -->
<g id="node30" class="node">
<title>D3ngScatterPlotComponent </title>
<polygon fill="#fb8072" stroke="#000000" points="2908.8714,-317 2731.1286,-317 2731.1286,-281 2908.8714,-281 2908.8714,-317"/>
<text text-anchor="middle" x="2820" y="-294.8" font-family="Times,serif" font-size="14.00" fill="#000000">D3ngScatterPlotComponent </text>
</g>
<!-- D3ngComponentsModule&#45;&gt;D3ngScatterPlotComponent  -->
<g id="edge36" class="edge">
<title>D3ngComponentsModule&#45;&gt;D3ngScatterPlotComponent </title>
<path fill="none" stroke="#000000" stroke-dasharray="5,2" d="M1930.1168,-244C2163.4867,-244 2820,-244 2820,-244 2820,-244 2820,-270.9909 2820,-270.9909"/>
<polygon fill="#000000" stroke="#000000" points="2816.5001,-270.9909 2820,-280.9909 2823.5001,-270.991 2816.5001,-270.9909"/>
</g>
<!-- D3ngTreeMapComponent  -->
<g id="node31" class="node">
<title>D3ngTreeMapComponent </title>
<polygon fill="#fb8072" stroke="#000000" points="2713.7408,-317 2546.2592,-317 2546.2592,-281 2713.7408,-281 2713.7408,-317"/>
<text text-anchor="middle" x="2630" y="-294.8" font-family="Times,serif" font-size="14.00" fill="#000000">D3ngTreeMapComponent </text>
</g>
<!-- D3ngComponentsModule&#45;&gt;D3ngTreeMapComponent  -->
<g id="edge37" class="edge">
<title>D3ngComponentsModule&#45;&gt;D3ngTreeMapComponent </title>
<path fill="none" stroke="#000000" stroke-dasharray="5,2" d="M1929.7487,-246C2123.767,-246 2600.2053,-246 2600.2053,-246 2600.2053,-246 2600.2053,-270.7604 2600.2053,-270.7604"/>
<polygon fill="#000000" stroke="#000000" points="2596.7054,-270.7604 2600.2053,-280.7604 2603.7054,-270.7604 2596.7054,-270.7604"/>
</g>
<!-- D3ngRadialEdgeBundlingComponent  -->
<g id="node32" class="node">
<title>D3ngRadialEdgeBundlingComponent </title>
<polygon fill="#fb8072" stroke="#000000" points="2528.8713,-317 2295.1287,-317 2295.1287,-281 2528.8713,-281 2528.8713,-317"/>
<text text-anchor="middle" x="2412" y="-294.8" font-family="Times,serif" font-size="14.00" fill="#000000">D3ngRadialEdgeBundlingComponent </text>
</g>
<!-- D3ngComponentsModule&#45;&gt;D3ngRadialEdgeBundlingComponent  -->
<g id="edge38" class="edge">
<title>D3ngComponentsModule&#45;&gt;D3ngRadialEdgeBundlingComponent </title>
<path fill="none" stroke="#000000" stroke-dasharray="5,2" d="M1929.9104,-248C2060.0856,-248 2301.57,-248 2301.57,-248 2301.57,-248 2301.57,-270.8757 2301.57,-270.8757"/>
<polygon fill="#000000" stroke="#000000" points="2298.07,-270.8757 2301.57,-280.8757 2305.07,-270.8757 2298.07,-270.8757"/>
</g>
<!-- D3ngChordDiagramComponent  -->
<g id="node33" class="node">
<title>D3ngChordDiagramComponent </title>
<polygon fill="#fb8072" stroke="#000000" points="2276.9138,-317 2077.0862,-317 2077.0862,-281 2276.9138,-281 2276.9138,-317"/>
<text text-anchor="middle" x="2177" y="-294.8" font-family="Times,serif" font-size="14.00" fill="#000000">D3ngChordDiagramComponent </text>
</g>
<!-- D3ngComponentsModule&#45;&gt;D3ngChordDiagramComponent  -->
<g id="edge39" class="edge">
<title>D3ngComponentsModule&#45;&gt;D3ngChordDiagramComponent </title>
<path fill="none" stroke="#000000" stroke-dasharray="5,2" d="M1929.7987,-250C2005.3437,-250 2106.5977,-250 2106.5977,-250 2106.5977,-250 2106.5977,-270.7542 2106.5977,-270.7542"/>
<polygon fill="#000000" stroke="#000000" points="2103.0977,-270.7542 2106.5977,-280.7542 2110.0977,-270.7542 2103.0977,-270.7542"/>
</g>
<!-- D3ngForceGraphComponent  -->
<g id="node34" class="node">
<title>D3ngForceGraphComponent </title>
<polygon fill="#fb8072" stroke="#000000" points="2059.2933,-317 1876.7067,-317 1876.7067,-281 2059.2933,-281 2059.2933,-317"/>
<text text-anchor="middle" x="1968" y="-294.8" font-family="Times,serif" font-size="14.00" fill="#000000">D3ngForceGraphComponent </text>
</g>
<!-- D3ngComponentsModule&#45;&gt;D3ngForceGraphComponent  -->
<g id="edge40" class="edge">
<title>D3ngComponentsModule&#45;&gt;D3ngForceGraphComponent </title>
<path fill="none" stroke="#000000" stroke-dasharray="5,2" d="M1903.1601,-252.1061C1903.1601,-252.1061 1903.1601,-270.991 1903.1601,-270.991"/>
<polygon fill="#000000" stroke="#000000" points="1899.6601,-270.9909 1903.1601,-280.991 1906.6601,-270.991 1899.6601,-270.9909"/>
</g>
<!-- D3ngCollapsibleIndentedTreeComponent  -->
<g id="node35" class="node">
<title>D3ngCollapsibleIndentedTreeComponent </title>
<polygon fill="#fb8072" stroke="#000000" points="1858.3348,-317 1603.6652,-317 1603.6652,-281 1858.3348,-281 1858.3348,-317"/>
<text text-anchor="middle" x="1731" y="-294.8" font-family="Times,serif" font-size="14.00" fill="#000000">D3ngCollapsibleIndentedTreeComponent </text>
</g>
<!-- D3ngComponentsModule&#45;&gt;D3ngCollapsibleIndentedTreeComponent  -->
<g id="edge41" class="edge">
<title>D3ngComponentsModule&#45;&gt;D3ngCollapsibleIndentedTreeComponent </title>
<path fill="none" stroke="#000000" stroke-dasharray="5,2" d="M1813.2253,-252.1061C1813.2253,-252.1061 1813.2253,-270.991 1813.2253,-270.991"/>
<polygon fill="#000000" stroke="#000000" points="1809.7254,-270.9909 1813.2253,-280.991 1816.7254,-270.991 1809.7254,-270.9909"/>
</g>
<!-- D3ngSourceDirective  -->
<g id="node36" class="node">
<title>D3ngSourceDirective </title>
<polygon fill="#fb8072" stroke="#000000" points="1585.5625,-317 1444.4375,-317 1444.4375,-281 1585.5625,-281 1585.5625,-317"/>
<text text-anchor="middle" x="1515" y="-294.8" font-family="Times,serif" font-size="14.00" fill="#000000">D3ngSourceDirective </text>
</g>
<!-- D3ngComponentsModule&#45;&gt;D3ngSourceDirective  -->
<g id="edge42" class="edge">
<title>D3ngComponentsModule&#45;&gt;D3ngSourceDirective </title>
<path fill="none" stroke="#000000" stroke-dasharray="5,2" d="M1768.0701,-250C1685.0263,-250 1567.8957,-250 1567.8957,-250 1567.8957,-250 1567.8957,-270.7542 1567.8957,-270.7542"/>
<polygon fill="#000000" stroke="#000000" points="1564.3958,-270.7542 1567.8957,-280.7542 1571.3958,-270.7542 1564.3958,-270.7542"/>
</g>
<!-- D3ngHistogramComponent  -->
<g id="node37" class="node">
<title>D3ngHistogramComponent </title>
<polygon fill="#fb8072" stroke="#000000" points="1426.5372,-317 1251.4628,-317 1251.4628,-281 1426.5372,-281 1426.5372,-317"/>
<text text-anchor="middle" x="1339" y="-294.8" font-family="Times,serif" font-size="14.00" fill="#000000">D3ngHistogramComponent </text>
</g>
<!-- D3ngComponentsModule&#45;&gt;D3ngHistogramComponent  -->
<g id="edge43" class="edge">
<title>D3ngComponentsModule&#45;&gt;D3ngHistogramComponent </title>
<path fill="none" stroke="#000000" stroke-dasharray="5,2" d="M1768.1209,-248C1643.8987,-248 1420.3424,-248 1420.3424,-248 1420.3424,-248 1420.3424,-270.8757 1420.3424,-270.8757"/>
<polygon fill="#000000" stroke="#000000" points="1416.8425,-270.8757 1420.3424,-280.8757 1423.8425,-270.8757 1416.8425,-270.8757"/>
</g>
<!-- D3ngGroupsComponent  -->
<g id="node38" class="node">
<title>D3ngGroupsComponent </title>
<polygon fill="#fb8072" stroke="#000000" points="1233.6509,-317 1076.3491,-317 1076.3491,-281 1233.6509,-281 1233.6509,-317"/>
<text text-anchor="middle" x="1155" y="-294.8" font-family="Times,serif" font-size="14.00" fill="#000000">D3ngGroupsComponent </text>
</g>
<!-- D3ngComponentsModule&#45;&gt;D3ngGroupsComponent  -->
<g id="edge44" class="edge">
<title>D3ngComponentsModule&#45;&gt;D3ngGroupsComponent </title>
<path fill="none" stroke="#000000" stroke-dasharray="5,2" d="M1767.994,-246C1587.1307,-246 1166.2123,-246 1166.2123,-246 1166.2123,-246 1166.2123,-270.7604 1166.2123,-270.7604"/>
<polygon fill="#000000" stroke="#000000" points="1162.7124,-270.7604 1166.2123,-280.7604 1169.7124,-270.7604 1162.7124,-270.7604"/>
</g>
<!-- D3ngGroupSelectionComponent  -->
<g id="node39" class="node">
<title>D3ngGroupSelectionComponent </title>
<polygon fill="#fb8072" stroke="#000000" points="1058.8045,-317 855.1955,-317 855.1955,-281 1058.8045,-281 1058.8045,-317"/>
<text text-anchor="middle" x="957" y="-294.8" font-family="Times,serif" font-size="14.00" fill="#000000">D3ngGroupSelectionComponent </text>
</g>
<!-- D3ngComponentsModule&#45;&gt;D3ngGroupSelectionComponent  -->
<g id="edge45" class="edge">
<title>D3ngComponentsModule&#45;&gt;D3ngGroupSelectionComponent </title>
<path fill="none" stroke="#000000" stroke-dasharray="5,2" d="M1768.1628,-244C1558.5703,-244 1013.8428,-244 1013.8428,-244 1013.8428,-244 1013.8428,-270.9909 1013.8428,-270.9909"/>
<polygon fill="#000000" stroke="#000000" points="1010.3428,-270.9909 1013.8428,-280.9909 1017.3428,-270.991 1010.3428,-270.9909"/>
</g>
<!-- D3ngMapComponent  -->
<g id="node40" class="node">
<title>D3ngMapComponent </title>
<polygon fill="#fb8072" stroke="#000000" points="836.5988,-317 695.4012,-317 695.4012,-281 836.5988,-281 836.5988,-317"/>
<text text-anchor="middle" x="766" y="-294.8" font-family="Times,serif" font-size="14.00" fill="#000000">D3ngMapComponent </text>
</g>
<!-- D3ngComponentsModule&#45;&gt;D3ngMapComponent  -->
<g id="edge46" class="edge">
<title>D3ngComponentsModule&#45;&gt;D3ngMapComponent </title>
<path fill="none" stroke="#000000" stroke-dasharray="5,2" d="M1768.0311,-242C1526.5449,-242 828.0086,-242 828.0086,-242 828.0086,-242 828.0086,-270.9648 828.0086,-270.9648"/>
<polygon fill="#000000" stroke="#000000" points="824.5087,-270.9648 828.0086,-280.9648 831.5087,-270.9649 824.5087,-270.9648"/>
</g>
<!-- D3ngBubbleHistogramComponent  -->
<g id="node41" class="node">
<title>D3ngBubbleHistogramComponent </title>
<polygon fill="#fb8072" stroke="#000000" points="676.9795,-317 461.0205,-317 461.0205,-281 676.9795,-281 676.9795,-317"/>
<text text-anchor="middle" x="569" y="-294.8" font-family="Times,serif" font-size="14.00" fill="#000000">D3ngBubbleHistogramComponent </text>
</g>
<!-- D3ngComponentsModule&#45;&gt;D3ngBubbleHistogramComponent  -->
<g id="edge47" class="edge">
<title>D3ngComponentsModule&#45;&gt;D3ngBubbleHistogramComponent </title>
<path fill="none" stroke="#000000" stroke-dasharray="5,2" d="M1768.2828,-240C1492.4367,-240 604.1773,-240 604.1773,-240 604.1773,-240 604.1773,-270.9775 604.1773,-270.9775"/>
<polygon fill="#000000" stroke="#000000" points="600.6773,-270.9774 604.1773,-280.9775 607.6773,-270.9775 600.6773,-270.9774"/>
</g>
<!-- { provide: D3ngChart, useExisting: &#160;} -->
<g id="node16" class="node">
<title>{ provide: D3ngChart, useExisting: &#160;}</title>
<ellipse fill="#fdb462" stroke="#000000" cx="3351" cy="-104" rx="157.7599" ry="18"/>
<text text-anchor="middle" x="3351" y="-99.8" font-family="Times,serif" font-size="14.00" fill="#000000">{ provide: D3ngChart, useExisting: &#160;}</text>
</g>
<!-- { provide: D3ngChart, useExisting: &#160;}&#45;&gt;D3ngParallelCoordinatesComponent -->
<g id="edge3" class="edge">
<title>{ provide: D3ngChart, useExisting: &#160;}&#45;&gt;D3ngParallelCoordinatesComponent</title>
<path fill="none" stroke="#000000" d="M3487.7689,-95C3700.1261,-95 4085,-95 4085,-95 4085,-95 4085,-140.7079 4085,-140.7079"/>
<polygon fill="#000000" stroke="#000000" points="4081.5001,-140.7078 4085,-150.7079 4088.5001,-140.7079 4081.5001,-140.7078"/>
</g>
<!-- { provide: D3ngChart, useExisting: &#160;}&#45;&gt;D3ngScatterPlotComponent -->
<g id="edge5" class="edge">
<title>{ provide: D3ngChart, useExisting: &#160;}&#45;&gt;D3ngScatterPlotComponent</title>
<path fill="none" stroke="#000000" d="M3508.8792,-104C3661.2458,-104 3869,-104 3869,-104 3869,-104 3869,-140.8939 3869,-140.8939"/>
<polygon fill="#000000" stroke="#000000" points="3865.5001,-140.8938 3869,-150.8939 3872.5001,-140.8939 3865.5001,-140.8938"/>
</g>
<!-- { provide: D3ngChart, useExisting: &#160;}&#45;&gt;D3ngTreeMapComponent -->
<g id="edge7" class="edge">
<title>{ provide: D3ngChart, useExisting: &#160;}&#45;&gt;D3ngTreeMapComponent</title>
<path fill="none" stroke="#000000" d="M3487.5414,-113C3578.7191,-113 3682,-113 3682,-113 3682,-113 3682,-140.973 3682,-140.973"/>
<polygon fill="#000000" stroke="#000000" points="3678.5001,-140.973 3682,-150.973 3685.5001,-140.973 3678.5001,-140.973"/>
</g>
<!-- { provide: D3ngChart, useExisting: &#160;}&#45;&gt;D3ngRadialEdgeBundlingComponent -->
<g id="edge9" class="edge">
<title>{ provide: D3ngChart, useExisting: &#160;}&#45;&gt;D3ngRadialEdgeBundlingComponent</title>
<path fill="none" stroke="#000000" d="M3430.3472,-119.7347C3430.3472,-119.7347 3430.3472,-140.6451 3430.3472,-140.6451"/>
<polygon fill="#000000" stroke="#000000" points="3426.8473,-140.645 3430.3472,-150.6451 3433.8473,-140.6451 3426.8473,-140.645"/>
</g>
<!-- { provide: D3ngChart, useExisting: &#160;}&#45;&gt;D3ngChordDiagramComponent -->
<g id="edge11" class="edge">
<title>{ provide: D3ngChart, useExisting: &#160;}&#45;&gt;D3ngChordDiagramComponent</title>
<path fill="none" stroke="#000000" d="M3263.7885,-119.0757C3263.7885,-119.0757 3263.7885,-140.7642 3263.7885,-140.7642"/>
<polygon fill="#000000" stroke="#000000" points="3260.2886,-140.7642 3263.7885,-150.7642 3267.2886,-140.7642 3260.2886,-140.7642"/>
</g>
<!-- { provide: D3ngChart, useExisting: &#160;}&#45;&gt;D3ngForceGraphComponent -->
<g id="edge13" class="edge">
<title>{ provide: D3ngChart, useExisting: &#160;}&#45;&gt;D3ngForceGraphComponent</title>
<path fill="none" stroke="#000000" d="M3214.4016,-113C3127.0335,-113 3030,-113 3030,-113 3030,-113 3030,-140.973 3030,-140.973"/>
<polygon fill="#000000" stroke="#000000" points="3026.5001,-140.973 3030,-150.973 3033.5001,-140.973 3026.5001,-140.973"/>
</g>
<!-- { provide: D3ngChart, useExisting: &#160;}&#45;&gt;D3ngCollapsibleIndentedTreeComponent -->
<g id="edge15" class="edge">
<title>{ provide: D3ngChart, useExisting: &#160;}&#45;&gt;D3ngCollapsibleIndentedTreeComponent</title>
<path fill="none" stroke="#000000" d="M3193.3576,-104C3029.5904,-104 2797,-104 2797,-104 2797,-104 2797,-140.8939 2797,-140.8939"/>
<polygon fill="#000000" stroke="#000000" points="2793.5001,-140.8938 2797,-150.8939 2800.5001,-140.8939 2793.5001,-140.8938"/>
</g>
<!-- { provide: D3ngChart, useExisting: &#160;}&#45;&gt;D3ngMapComponent -->
<g id="edge21" class="edge">
<title>{ provide: D3ngChart, useExisting: &#160;}&#45;&gt;D3ngMapComponent</title>
<path fill="none" stroke="#000000" d="M3214.3928,-95C2844.1332,-95 1849,-95 1849,-95 1849,-95 1849,-140.7079 1849,-140.7079"/>
<polygon fill="#000000" stroke="#000000" points="1845.5001,-140.7078 1849,-150.7079 1852.5001,-140.7079 1845.5001,-140.7078"/>
</g>
<!-- CommonModule -->
<g id="node17" class="node">
<title>CommonModule</title>
<polygon fill="#8dd3c7" stroke="#000000" points="1525.6681,-187 1522.6681,-191 1501.6681,-191 1498.6681,-187 1414.3319,-187 1414.3319,-151 1525.6681,-151 1525.6681,-187"/>
<text text-anchor="middle" x="1470" y="-164.8" font-family="Times,serif" font-size="14.00" fill="#000000">CommonModule</text>
</g>
<!-- CommonModule&#45;&gt;D3ngComponentsModule -->
<g id="edge23" class="edge">
<title>CommonModule&#45;&gt;D3ngComponentsModule</title>
<path fill="none" stroke="#000000" d="M1485.0265,-187.2458C1485.0265,-201.1772 1485.0265,-218 1485.0265,-218 1485.0265,-218 1758.2225,-218 1758.2225,-218"/>
<polygon fill="#000000" stroke="#000000" points="1758.2225,-221.5001 1768.2225,-218 1758.2224,-214.5001 1758.2225,-221.5001"/>
</g>
<!-- BrowserModule -->
<g id="node18" class="node">
<title>BrowserModule</title>
<polygon fill="#8dd3c7" stroke="#000000" points="1396.4734,-187 1393.4734,-191 1372.4734,-191 1369.4734,-187 1289.5266,-187 1289.5266,-151 1396.4734,-151 1396.4734,-187"/>
<text text-anchor="middle" x="1343" y="-164.8" font-family="Times,serif" font-size="14.00" fill="#000000">BrowserModule</text>
</g>
<!-- BrowserModule&#45;&gt;D3ngComponentsModule -->
<g id="edge24" class="edge">
<title>BrowserModule&#45;&gt;D3ngComponentsModule</title>
<path fill="none" stroke="#000000" d="M1343,-187.1243C1343,-201.7832 1343,-220 1343,-220 1343,-220 1758.2633,-220 1758.2633,-220"/>
<polygon fill="#000000" stroke="#000000" points="1758.2633,-223.5001 1768.2633,-220 1758.2633,-216.5001 1758.2633,-223.5001"/>
</g>
<!-- BrowserAnimationsModule -->
<g id="node19" class="node">
<title>BrowserAnimationsModule</title>
<polygon fill="#8dd3c7" stroke="#000000" points="1271.3019,-187 1268.3019,-191 1247.3019,-191 1244.3019,-187 1098.6981,-187 1098.6981,-151 1271.3019,-151 1271.3019,-187"/>
<text text-anchor="middle" x="1185" y="-164.8" font-family="Times,serif" font-size="14.00" fill="#000000">BrowserAnimationsModule</text>
</g>
<!-- BrowserAnimationsModule&#45;&gt;D3ngComponentsModule -->
<g id="edge25" class="edge">
<title>BrowserAnimationsModule&#45;&gt;D3ngComponentsModule</title>
<path fill="none" stroke="#000000" d="M1261.3161,-187.2396C1261.3161,-202.5706 1261.3161,-222 1261.3161,-222 1261.3161,-222 1758.2099,-222 1758.2099,-222"/>
<polygon fill="#000000" stroke="#000000" points="1758.21,-225.5001 1768.2099,-222 1758.2099,-218.5001 1758.21,-225.5001"/>
</g>
<!-- MdSliderModule -->
<g id="node20" class="node">
<title>MdSliderModule</title>
<polygon fill="#8dd3c7" stroke="#000000" points="1081.4342,-187 1078.4342,-191 1057.4342,-191 1054.4342,-187 968.5658,-187 968.5658,-151 1081.4342,-151 1081.4342,-187"/>
<text text-anchor="middle" x="1025" y="-164.8" font-family="Times,serif" font-size="14.00" fill="#000000">MdSliderModule</text>
</g>
<!-- MdSliderModule&#45;&gt;D3ngComponentsModule -->
<g id="edge26" class="edge">
<title>MdSliderModule&#45;&gt;D3ngComponentsModule</title>
<path fill="none" stroke="#000000" d="M1067.6634,-187.0091C1067.6634,-203.0494 1067.6634,-224 1067.6634,-224 1067.6634,-224 1757.9606,-224 1757.9606,-224"/>
<polygon fill="#000000" stroke="#000000" points="1757.9607,-227.5001 1767.9606,-224 1757.9606,-220.5001 1757.9607,-227.5001"/>
</g>
<!-- MdSelectModule -->
<g id="node21" class="node">
<title>MdSelectModule</title>
<polygon fill="#8dd3c7" stroke="#000000" points="950.7022,-187 947.7022,-191 926.7022,-191 923.7022,-187 837.2978,-187 837.2978,-151 950.7022,-151 950.7022,-187"/>
<text text-anchor="middle" x="894" y="-164.8" font-family="Times,serif" font-size="14.00" fill="#000000">MdSelectModule</text>
</g>
<!-- MdSelectModule&#45;&gt;D3ngComponentsModule -->
<g id="edge27" class="edge">
<title>MdSelectModule&#45;&gt;D3ngComponentsModule</title>
<path fill="none" stroke="#000000" d="M902.8494,-187.0352C902.8494,-203.7344 902.8494,-226 902.8494,-226 902.8494,-226 1757.9227,-226 1757.9227,-226"/>
<polygon fill="#000000" stroke="#000000" points="1757.9228,-229.5001 1767.9227,-226 1757.9227,-222.5001 1757.9228,-229.5001"/>
</g>
<!-- MdRadioModule -->
<g id="node22" class="node">
<title>MdRadioModule</title>
<polygon fill="#8dd3c7" stroke="#000000" points="819.437,-187 816.437,-191 795.437,-191 792.437,-187 706.563,-187 706.563,-151 819.437,-151 819.437,-187"/>
<text text-anchor="middle" x="763" y="-164.8" font-family="Times,serif" font-size="14.00" fill="#000000">MdRadioModule</text>
</g>
<!-- MdRadioModule&#45;&gt;D3ngComponentsModule -->
<g id="edge28" class="edge">
<title>MdRadioModule&#45;&gt;D3ngComponentsModule</title>
<path fill="none" stroke="#000000" d="M763,-187.0225C763,-204.3734 763,-228 763,-228 763,-228 1758.2607,-228 1758.2607,-228"/>
<polygon fill="#000000" stroke="#000000" points="1758.2608,-231.5001 1768.2607,-228 1758.2607,-224.5001 1758.2608,-231.5001"/>
</g>
<!-- MdButtonToggleModule -->
<g id="node23" class="node">
<title>MdButtonToggleModule</title>
<polygon fill="#8dd3c7" stroke="#000000" points="688.2702,-187 685.2702,-191 664.2702,-191 661.2702,-187 531.7298,-187 531.7298,-151 688.2702,-151 688.2702,-187"/>
<text text-anchor="middle" x="610" y="-164.8" font-family="Times,serif" font-size="14.00" fill="#000000">MdButtonToggleModule</text>
</g>
<!-- MdButtonToggleModule&#45;&gt;D3ngComponentsModule -->
<g id="edge29" class="edge">
<title>MdButtonToggleModule&#45;&gt;D3ngComponentsModule</title>
<path fill="none" stroke="#000000" d="M682.5622,-187.302C682.5622,-205.2699 682.5622,-230 682.5622,-230 682.5622,-230 1757.9044,-230 1757.9044,-230"/>
<polygon fill="#000000" stroke="#000000" points="1757.9045,-233.5001 1767.9044,-230 1757.9044,-226.5001 1757.9045,-233.5001"/>
</g>
<!-- MdSlideToggleModule -->
<g id="node24" class="node">
<title>MdSlideToggleModule</title>
<polygon fill="#8dd3c7" stroke="#000000" points="513.9312,-187 510.9312,-191 489.9312,-191 486.9312,-187 366.0688,-187 366.0688,-151 513.9312,-151 513.9312,-187"/>
<text text-anchor="middle" x="440" y="-164.8" font-family="Times,serif" font-size="14.00" fill="#000000">MdSlideToggleModule</text>
</g>
<!-- MdSlideToggleModule&#45;&gt;D3ngComponentsModule -->
<g id="edge30" class="edge">
<title>MdSlideToggleModule&#45;&gt;D3ngComponentsModule</title>
<path fill="none" stroke="#000000" d="M487.4879,-187.2222C487.4879,-205.8285 487.4879,-232 487.4879,-232 487.4879,-232 1758.1605,-232 1758.1605,-232"/>
<polygon fill="#000000" stroke="#000000" points="1758.1605,-235.5001 1768.1605,-232 1758.1605,-228.5001 1758.1605,-235.5001"/>
</g>
<!-- MdInputModule -->
<g id="node25" class="node">
<title>MdInputModule</title>
<polygon fill="#8dd3c7" stroke="#000000" points="348.0465,-187 345.0465,-191 324.0465,-191 321.0465,-187 239.9535,-187 239.9535,-151 348.0465,-151 348.0465,-187"/>
<text text-anchor="middle" x="294" y="-164.8" font-family="Times,serif" font-size="14.00" fill="#000000">MdInputModule</text>
</g>
<!-- MdInputModule&#45;&gt;D3ngComponentsModule -->
<g id="edge31" class="edge">
<title>MdInputModule&#45;&gt;D3ngComponentsModule</title>
<path fill="none" stroke="#000000" d="M294,-187.1061C294,-206.3391 294,-234 294,-234 294,-234 1758.1292,-234 1758.1292,-234"/>
<polygon fill="#000000" stroke="#000000" points="1758.1292,-237.5001 1768.1292,-234 1758.1291,-230.5001 1758.1292,-237.5001"/>
</g>
<!-- FormsModule -->
<g id="node26" class="node">
<title>FormsModule</title>
<polygon fill="#8dd3c7" stroke="#000000" points="221.8288,-187 218.8288,-191 197.8288,-191 194.8288,-187 126.1712,-187 126.1712,-151 221.8288,-151 221.8288,-187"/>
<text text-anchor="middle" x="174" y="-164.8" font-family="Times,serif" font-size="14.00" fill="#000000">FormsModule</text>
</g>
<!-- FormsModule&#45;&gt;D3ngComponentsModule -->
<g id="edge32" class="edge">
<title>FormsModule&#45;&gt;D3ngComponentsModule</title>
<path fill="none" stroke="#000000" d="M174,-187.308C174,-207.1455 174,-236 174,-236 174,-236 1758.2113,-236 1758.2113,-236"/>
<polygon fill="#000000" stroke="#000000" points="1758.2113,-239.5001 1768.2113,-236 1758.2112,-232.5001 1758.2113,-239.5001"/>
</g>
<!-- HttpModule -->
<g id="node27" class="node">
<title>HttpModule</title>
<polygon fill="#8dd3c7" stroke="#000000" points="108.4387,-187 105.4387,-191 84.4387,-191 81.4387,-187 23.5613,-187 23.5613,-151 108.4387,-151 108.4387,-187"/>
<text text-anchor="middle" x="66" y="-164.8" font-family="Times,serif" font-size="14.00" fill="#000000">HttpModule</text>
</g>
<!-- HttpModule&#45;&gt;D3ngComponentsModule -->
<g id="edge33" class="edge">
<title>HttpModule&#45;&gt;D3ngComponentsModule</title>
<path fill="none" stroke="#000000" d="M66,-187.1289C66,-207.5724 66,-238 66,-238 66,-238 1758.0481,-238 1758.0481,-238"/>
<polygon fill="#000000" stroke="#000000" points="1758.0481,-241.5001 1768.0481,-238 1758.048,-234.5001 1758.0481,-241.5001"/>
</g>
</g>
</svg>
