<?xml version="1.0" encoding="UTF-8" standalone="no"?>
<!DOCTYPE svg PUBLIC "-//W3C//DTD SVG 1.1//EN"
 "http://www.w3.org/Graphics/SVG/1.1/DTD/svg11.dtd">
<!-- Generated by graphviz version 2.40.1 (20161225.0304)
 -->
<!-- Title: dependencies Pages: 1 -->
<svg width="4559pt" height="349pt"
 viewBox="0.00 0.00 4559.00 349.00" xmlns="http://www.w3.org/2000/svg" xmlns:xlink="http://www.w3.org/1999/xlink">
<g id="graph0" class="graph" transform="scale(1 1) rotate(0) translate(4 345)">
<title>dependencies</title>
<polygon fill="#ffffff" stroke="transparent" points="-4,4 -4,-345 4555,-345 4555,4 -4,4"/>
<text text-anchor="start" x="2254.5091" y="-42.4" font-family="sans-serif" font-weight="bold" font-size="14.00" fill="#000000">Legend</text>
<polygon fill="#ffffb3" stroke="transparent" points="2041.5,-10 2041.5,-30 2061.5,-30 2061.5,-10 2041.5,-10"/>
<text text-anchor="start" x="2065.129" y="-15.4" font-family="sans-serif" font-size="14.00" fill="#000000"> &#160;Declarations</text>
<polygon fill="#8dd3c7" stroke="transparent" points="2154.5,-10 2154.5,-30 2174.5,-30 2174.5,-10 2154.5,-10"/>
<text text-anchor="start" x="2178.2251" y="-15.4" font-family="sans-serif" font-size="14.00" fill="#000000"> &#160;Module</text>
<polygon fill="#80b1d3" stroke="transparent" points="2240.5,-10 2240.5,-30 2260.5,-30 2260.5,-10 2240.5,-10"/>
<text text-anchor="start" x="2264.2812" y="-15.4" font-family="sans-serif" font-size="14.00" fill="#000000"> &#160;Bootstrap</text>
<polygon fill="#fdb462" stroke="transparent" points="2337.5,-10 2337.5,-30 2357.5,-30 2357.5,-10 2337.5,-10"/>
<text text-anchor="start" x="2361.1732" y="-15.4" font-family="sans-serif" font-size="14.00" fill="#000000"> &#160;Providers</text>
<polygon fill="#fb8072" stroke="transparent" points="2433.5,-10 2433.5,-30 2453.5,-30 2453.5,-10 2433.5,-10"/>
<text text-anchor="start" x="2457.2258" y="-15.4" font-family="sans-serif" font-size="14.00" fill="#000000"> &#160;Exports</text>
<g id="clust1" class="cluster">
<title>cluster_D3ngComponentsModule</title>
<polygon fill="none" stroke="#000000" stroke-dasharray="1,5" points="8,-70 8,-333 4543,-333 4543,-70 8,-70"/>
</g>
<g id="clust2" class="cluster">
<title>cluster_D3ngComponentsModule_declarations</title>
<polygon fill="none" stroke="#000000" points="1542,-143 1542,-195 4535,-195 4535,-143 1542,-143"/>
</g>
<g id="clust4" class="cluster">
<title>cluster_D3ngComponentsModule_D3ngParallelCoordinatesComponent_providers</title>
<polygon fill="none" stroke="#000000" points="3248,-78 3248,-130 3580,-130 3580,-78 3248,-78"/>
</g>
<g id="clust18" class="cluster">
<title>cluster_D3ngComponentsModule_imports</title>
<polygon fill="none" stroke="#000000" points="16,-143 16,-195 1534,-195 1534,-143 16,-143"/>
</g>
<g id="clust19" class="cluster">
<title>cluster_D3ngComponentsModule_exports</title>
<polygon fill="none" stroke="#000000" points="471,-273 471,-325 3516,-325 3516,-273 471,-273"/>
</g>
<!-- D3ngListComponent -->
<g id="node1" class="node">
<title>D3ngListComponent</title>
<polygon fill="#ffffb3" stroke="#000000" points="4527.2176,-187 4392.7824,-187 4392.7824,-151 4527.2176,-151 4527.2176,-187"/>
<text text-anchor="middle" x="4460" y="-164.8" font-family="Times,serif" font-size="14.00" fill="#000000">D3ngListComponent</text>
</g>
<!-- D3ngComponentsModule -->
<g id="node16" class="node">
<title>D3ngComponentsModule</title>
<polygon fill="#8dd3c7" stroke="#000000" points="2010.934,-252 2007.934,-256 1986.934,-256 1983.934,-252 1849.066,-252 1849.066,-216 2010.934,-216 2010.934,-252"/>
<text text-anchor="middle" x="1930" y="-229.8" font-family="Times,serif" font-size="14.00" fill="#000000">D3ngComponentsModule</text>
</g>
<!-- D3ngListComponent&#45;&gt;D3ngComponentsModule -->
<g id="edge1" class="edge">
<title>D3ngListComponent&#45;&gt;D3ngComponentsModule</title>
<path fill="none" stroke="#000000" d="M4460,-187.1289C4460,-207.5724 4460,-238 4460,-238 4460,-238 2020.9572,-238 2020.9572,-238"/>
<polygon fill="#000000" stroke="#000000" points="2020.9572,-234.5001 2010.9572,-238 2020.9571,-241.5001 2020.9572,-234.5001"/>
</g>
<!-- D3ngParallelCoordinatesComponent -->
<g id="node2" class="node">
<title>D3ngParallelCoordinatesComponent</title>
<polygon fill="#ffffb3" stroke="#000000" points="4374.3501,-187 4151.6499,-187 4151.6499,-151 4374.3501,-151 4374.3501,-187"/>
<text text-anchor="middle" x="4263" y="-164.8" font-family="Times,serif" font-size="14.00" fill="#000000">D3ngParallelCoordinatesComponent</text>
</g>
<!-- D3ngParallelCoordinatesComponent&#45;&gt;D3ngComponentsModule -->
<g id="edge2" class="edge">
<title>D3ngParallelCoordinatesComponent&#45;&gt;D3ngComponentsModule</title>
<path fill="none" stroke="#000000" d="M4263,-187.308C4263,-207.1455 4263,-236 4263,-236 4263,-236 2020.9846,-236 2020.9846,-236"/>
<polygon fill="#000000" stroke="#000000" points="2020.9847,-232.5001 2010.9846,-236 2020.9846,-239.5001 2020.9847,-232.5001"/>
</g>
<!-- D3ngScatterPlotComponent -->
<g id="node3" class="node">
<title>D3ngScatterPlotComponent</title>
<polygon fill="#ffffb3" stroke="#000000" points="4133.871,-187 3960.129,-187 3960.129,-151 4133.871,-151 4133.871,-187"/>
<text text-anchor="middle" x="4047" y="-164.8" font-family="Times,serif" font-size="14.00" fill="#000000">D3ngScatterPlotComponent</text>
</g>
<!-- D3ngScatterPlotComponent&#45;&gt;D3ngComponentsModule -->
<g id="edge4" class="edge">
<title>D3ngScatterPlotComponent&#45;&gt;D3ngComponentsModule</title>
<path fill="none" stroke="#000000" d="M4047,-187.1061C4047,-206.3391 4047,-234 4047,-234 4047,-234 2020.7249,-234 2020.7249,-234"/>
<polygon fill="#000000" stroke="#000000" points="2020.725,-230.5001 2010.7249,-234 2020.7249,-237.5001 2020.725,-230.5001"/>
</g>
<!-- D3ngTreeMapComponent -->
<g id="node4" class="node">
<title>D3ngTreeMapComponent</title>
<polygon fill="#ffffb3" stroke="#000000" points="3941.7408,-187 3778.2592,-187 3778.2592,-151 3941.7408,-151 3941.7408,-187"/>
<text text-anchor="middle" x="3860" y="-164.8" font-family="Times,serif" font-size="14.00" fill="#000000">D3ngTreeMapComponent</text>
</g>
<!-- D3ngTreeMapComponent&#45;&gt;D3ngComponentsModule -->
<g id="edge6" class="edge">
<title>D3ngTreeMapComponent&#45;&gt;D3ngComponentsModule</title>
<path fill="none" stroke="#000000" d="M3860,-187.1686C3860,-206.0898 3860,-233 3860,-233 3860,-233 2020.7779,-233 2020.7779,-233"/>
<polygon fill="#000000" stroke="#000000" points="2020.7779,-229.5001 2010.7779,-233 2020.7778,-236.5001 2020.7779,-229.5001"/>
</g>
<!-- D3ngRadialEdgeBundlingComponent -->
<g id="node5" class="node">
<title>D3ngRadialEdgeBundlingComponent</title>
<polygon fill="#ffffb3" stroke="#000000" points="3759.871,-187 3530.129,-187 3530.129,-151 3759.871,-151 3759.871,-187"/>
<text text-anchor="middle" x="3645" y="-164.8" font-family="Times,serif" font-size="14.00" fill="#000000">D3ngRadialEdgeBundlingComponent</text>
</g>
<!-- D3ngRadialEdgeBundlingComponent&#45;&gt;D3ngComponentsModule -->
<g id="edge8" class="edge">
<title>D3ngRadialEdgeBundlingComponent&#45;&gt;D3ngComponentsModule</title>
<path fill="none" stroke="#000000" d="M3645,-187.2667C3645,-205.5552 3645,-231 3645,-231 3645,-231 2020.9901,-231 2020.9901,-231"/>
<polygon fill="#000000" stroke="#000000" points="2020.9901,-227.5001 2010.9901,-231 2020.9901,-234.5001 2020.9901,-227.5001"/>
</g>
<!-- D3ngChordDiagramComponent -->
<g id="node6" class="node">
<title>D3ngChordDiagramComponent</title>
<polygon fill="#ffffb3" stroke="#000000" points="3512.4142,-187 3315.5858,-187 3315.5858,-151 3512.4142,-151 3512.4142,-187"/>
<text text-anchor="middle" x="3414" y="-164.8" font-family="Times,serif" font-size="14.00" fill="#000000">D3ngChordDiagramComponent</text>
</g>
<!-- D3ngChordDiagramComponent&#45;&gt;D3ngComponentsModule -->
<g id="edge10" class="edge">
<title>D3ngChordDiagramComponent&#45;&gt;D3ngComponentsModule</title>
<path fill="none" stroke="#000000" d="M3333.9841,-187.002C3333.9841,-204.6754 3333.9841,-229 3333.9841,-229 3333.9841,-229 2020.7828,-229 2020.7828,-229"/>
<polygon fill="#000000" stroke="#000000" points="2020.7829,-225.5001 2010.7828,-229 2020.7828,-232.5001 2020.7829,-225.5001"/>
</g>
<!-- D3ngForceGraphComponent -->
<g id="node7" class="node">
<title>D3ngForceGraphComponent</title>
<polygon fill="#ffffb3" stroke="#000000" points="3297.7934,-187 3118.2066,-187 3118.2066,-151 3297.7934,-151 3297.7934,-187"/>
<text text-anchor="middle" x="3208" y="-164.8" font-family="Times,serif" font-size="14.00" fill="#000000">D3ngForceGraphComponent</text>
</g>
<!-- D3ngForceGraphComponent&#45;&gt;D3ngComponentsModule -->
<g id="edge12" class="edge">
<title>D3ngForceGraphComponent&#45;&gt;D3ngComponentsModule</title>
<path fill="none" stroke="#000000" d="M3122.0892,-187.0336C3122.0892,-204.0597 3122.0892,-227 3122.0892,-227 3122.0892,-227 2020.9999,-227 2020.9999,-227"/>
<polygon fill="#000000" stroke="#000000" points="2021,-223.5001 2010.9999,-227 2020.9999,-230.5001 2021,-223.5001"/>
</g>
<!-- D3ngCollapsibleIndentedTreeComponent -->
<g id="node8" class="node">
<title>D3ngCollapsibleIndentedTreeComponent</title>
<polygon fill="#ffffb3" stroke="#000000" points="3100.3347,-187 2849.6653,-187 2849.6653,-151 3100.3347,-151 3100.3347,-187"/>
<text text-anchor="middle" x="2975" y="-164.8" font-family="Times,serif" font-size="14.00" fill="#000000">D3ngCollapsibleIndentedTreeComponent</text>
</g>
<!-- D3ngCollapsibleIndentedTreeComponent&#45;&gt;D3ngComponentsModule -->
<g id="edge14" class="edge">
<title>D3ngCollapsibleIndentedTreeComponent&#45;&gt;D3ngComponentsModule</title>
<path fill="none" stroke="#000000" d="M2881.1015,-187.027C2881.1015,-203.3976 2881.1015,-225 2881.1015,-225 2881.1015,-225 2021.0904,-225 2021.0904,-225"/>
<polygon fill="#000000" stroke="#000000" points="2021.0904,-221.5001 2011.0904,-225 2021.0903,-228.5001 2021.0904,-221.5001"/>
</g>
<!-- D3ngSourceDirective -->
<g id="node9" class="node">
<title>D3ngSourceDirective</title>
<polygon fill="#ffffb3" stroke="#000000" points="2832.0618,-187 2693.9382,-187 2693.9382,-151 2832.0618,-151 2832.0618,-187"/>
<text text-anchor="middle" x="2763" y="-164.8" font-family="Times,serif" font-size="14.00" fill="#000000">D3ngSourceDirective</text>
</g>
<!-- D3ngSourceDirective&#45;&gt;D3ngComponentsModule -->
<g id="edge16" class="edge">
<title>D3ngSourceDirective&#45;&gt;D3ngComponentsModule</title>
<path fill="none" stroke="#000000" d="M2710.8273,-187.0091C2710.8273,-203.0494 2710.8273,-224 2710.8273,-224 2710.8273,-224 2020.9866,-224 2020.9866,-224"/>
<polygon fill="#000000" stroke="#000000" points="2020.9866,-220.5001 2010.9866,-224 2020.9865,-227.5001 2020.9866,-220.5001"/>
</g>
<!-- D3ngHistogramComponent -->
<g id="node10" class="node">
<title>D3ngHistogramComponent</title>
<polygon fill="#ffffb3" stroke="#000000" points="2675.5378,-187 2504.4622,-187 2504.4622,-151 2675.5378,-151 2675.5378,-187"/>
<text text-anchor="middle" x="2590" y="-164.8" font-family="Times,serif" font-size="14.00" fill="#000000">D3ngHistogramComponent</text>
</g>
<!-- D3ngHistogramComponent&#45;&gt;D3ngComponentsModule -->
<g id="edge17" class="edge">
<title>D3ngHistogramComponent&#45;&gt;D3ngComponentsModule</title>
<path fill="none" stroke="#000000" d="M2590,-187.2396C2590,-202.5706 2590,-222 2590,-222 2590,-222 2020.929,-222 2020.929,-222"/>
<polygon fill="#000000" stroke="#000000" points="2020.929,-218.5001 2010.929,-222 2020.9289,-225.5001 2020.929,-218.5001"/>
</g>
<!-- D3ngGroupsComponent -->
<g id="node11" class="node">
<title>D3ngGroupsComponent</title>
<polygon fill="#ffffb3" stroke="#000000" points="2485.6512,-187 2332.3488,-187 2332.3488,-151 2485.6512,-151 2485.6512,-187"/>
<text text-anchor="middle" x="2409" y="-164.8" font-family="Times,serif" font-size="14.00" fill="#000000">D3ngGroupsComponent</text>
</g>
<!-- D3ngGroupsComponent&#45;&gt;D3ngComponentsModule -->
<g id="edge18" class="edge">
<title>D3ngGroupsComponent&#45;&gt;D3ngComponentsModule</title>
<path fill="none" stroke="#000000" d="M2404.0657,-187.1243C2404.0657,-201.7832 2404.0657,-220 2404.0657,-220 2404.0657,-220 2020.9562,-220 2020.9562,-220"/>
<polygon fill="#000000" stroke="#000000" points="2020.9562,-216.5001 2010.9562,-220 2020.9561,-223.5001 2020.9562,-216.5001"/>
</g>
<!-- D3ngGroupSelectionComponent -->
<g id="node12" class="node">
<title>D3ngGroupSelectionComponent</title>
<polygon fill="#ffffb3" stroke="#000000" points="2314.3046,-187 2113.6954,-187 2113.6954,-151 2314.3046,-151 2314.3046,-187"/>
<text text-anchor="middle" x="2214" y="-164.8" font-family="Times,serif" font-size="14.00" fill="#000000">D3ngGroupSelectionComponent</text>
</g>
<!-- D3ngGroupSelectionComponent&#45;&gt;D3ngComponentsModule -->
<g id="edge19" class="edge">
<title>D3ngGroupSelectionComponent&#45;&gt;D3ngComponentsModule</title>
<path fill="none" stroke="#000000" d="M2186.1222,-187.2458C2186.1222,-201.1772 2186.1222,-218 2186.1222,-218 2186.1222,-218 2021.0387,-218 2021.0387,-218"/>
<polygon fill="#000000" stroke="#000000" points="2021.0387,-214.5001 2011.0387,-218 2021.0386,-221.5001 2021.0387,-214.5001"/>
</g>
<!-- D3ngMapComponent -->
<g id="node13" class="node">
<title>D3ngMapComponent</title>
<polygon fill="#ffffb3" stroke="#000000" points="2096.0982,-187 1957.9018,-187 1957.9018,-151 2096.0982,-151 2096.0982,-187"/>
<text text-anchor="middle" x="2027" y="-164.8" font-family="Times,serif" font-size="14.00" fill="#000000">D3ngMapComponent</text>
</g>
<!-- D3ngMapComponent&#45;&gt;D3ngComponentsModule -->
<g id="edge20" class="edge">
<title>D3ngMapComponent&#45;&gt;D3ngComponentsModule</title>
<path fill="none" stroke="#000000" d="M1984.3338,-187.1061C1984.3338,-187.1061 1984.3338,-205.991 1984.3338,-205.991"/>
<polygon fill="#000000" stroke="#000000" points="1980.8339,-205.9909 1984.3338,-215.991 1987.8339,-205.991 1980.8339,-205.9909"/>
</g>
<!-- D3ngBubbleHistogramComponent -->
<g id="node14" class="node">
<title>D3ngBubbleHistogramComponent</title>
<polygon fill="#ffffb3" stroke="#000000" points="1939.979,-187 1728.021,-187 1728.021,-151 1939.979,-151 1939.979,-187"/>
<text text-anchor="middle" x="1834" y="-164.8" font-family="Times,serif" font-size="14.00" fill="#000000">D3ngBubbleHistogramComponent</text>
</g>
<!-- D3ngBubbleHistogramComponent&#45;&gt;D3ngComponentsModule -->
<g id="edge22" class="edge">
<title>D3ngBubbleHistogramComponent&#45;&gt;D3ngComponentsModule</title>
<path fill="none" stroke="#000000" d="M1894.6364,-187.1061C1894.6364,-187.1061 1894.6364,-205.991 1894.6364,-205.991"/>
<polygon fill="#000000" stroke="#000000" points="1891.1365,-205.9909 1894.6364,-215.991 1898.1365,-205.991 1891.1365,-205.9909"/>
</g>
<!-- D3ngPathPlotComponent -->
<g id="node15" class="node">
<title>D3ngPathPlotComponent</title>
<polygon fill="#ffffb3" stroke="#000000" points="1709.8906,-187 1550.1094,-187 1550.1094,-151 1709.8906,-151 1709.8906,-187"/>
<text text-anchor="middle" x="1630" y="-164.8" font-family="Times,serif" font-size="14.00" fill="#000000">D3ngPathPlotComponent</text>
</g>
<!-- D3ngPathPlotComponent&#45;&gt;D3ngComponentsModule -->
<g id="edge23" class="edge">
<title>D3ngPathPlotComponent&#45;&gt;D3ngComponentsModule</title>
<path fill="none" stroke="#000000" d="M1676.5822,-187.2458C1676.5822,-201.1772 1676.5822,-218 1676.5822,-218 1676.5822,-218 1839.1203,-218 1839.1203,-218"/>
<polygon fill="#000000" stroke="#000000" points="1839.1203,-221.5001 1849.1203,-218 1839.1202,-214.5001 1839.1203,-221.5001"/>
</g>
<!-- D3ngListComponent  -->
<g id="node29" class="node">
<title>D3ngListComponent </title>
<polygon fill="#fb8072" stroke="#000000" points="3507.7177,-317 3370.2823,-317 3370.2823,-281 3507.7177,-281 3507.7177,-317"/>
<text text-anchor="middle" x="3439" y="-294.8" font-family="Times,serif" font-size="14.00" fill="#000000">D3ngListComponent </text>
</g>
<!-- D3ngComponentsModule&#45;&gt;D3ngListComponent  -->
<g id="edge36" class="edge">
<title>D3ngComponentsModule&#45;&gt;D3ngListComponent </title>
<path fill="none" stroke="#000000" stroke-dasharray="5,2" d="M2010.8635,-240C2323.9319,-240 3439,-240 3439,-240 3439,-240 3439,-270.9775 3439,-270.9775"/>
<polygon fill="#000000" stroke="#000000" points="3435.5001,-270.9774 3439,-280.9775 3442.5001,-270.9775 3435.5001,-270.9774"/>
</g>
<!-- D3ngParallelCoordinatesComponent  -->
<g id="node30" class="node">
<title>D3ngParallelCoordinatesComponent </title>
<polygon fill="#fb8072" stroke="#000000" points="3352.3503,-317 3125.6497,-317 3125.6497,-281 3352.3503,-281 3352.3503,-317"/>
<text text-anchor="middle" x="3239" y="-294.8" font-family="Times,serif" font-size="14.00" fill="#000000">D3ngParallelCoordinatesComponent </text>
</g>
<!-- D3ngComponentsModule&#45;&gt;D3ngParallelCoordinatesComponent  -->
<g id="edge37" class="edge">
<title>D3ngComponentsModule&#45;&gt;D3ngParallelCoordinatesComponent </title>
<path fill="none" stroke="#000000" stroke-dasharray="5,2" d="M2011.1507,-242C2292.9024,-242 3211.7358,-242 3211.7358,-242 3211.7358,-242 3211.7358,-270.9648 3211.7358,-270.9648"/>
<polygon fill="#000000" stroke="#000000" points="3208.2359,-270.9648 3211.7358,-280.9648 3215.2359,-270.9649 3208.2359,-270.9648"/>
</g>
<!-- D3ngScatterPlotComponent  -->
<g id="node31" class="node">
<title>D3ngScatterPlotComponent </title>
<polygon fill="#fb8072" stroke="#000000" points="3107.8714,-317 2930.1286,-317 2930.1286,-281 3107.8714,-281 3107.8714,-317"/>
<text text-anchor="middle" x="3019" y="-294.8" font-family="Times,serif" font-size="14.00" fill="#000000">D3ngScatterPlotComponent </text>
</g>
<!-- D3ngComponentsModule&#45;&gt;D3ngScatterPlotComponent  -->
<g id="edge38" class="edge">
<title>D3ngComponentsModule&#45;&gt;D3ngScatterPlotComponent </title>
<path fill="none" stroke="#000000" stroke-dasharray="5,2" d="M2011.135,-243C2263.111,-243 3015.3659,-243 3015.3659,-243 3015.3659,-243 3015.3659,-270.973 3015.3659,-270.973"/>
<polygon fill="#000000" stroke="#000000" points="3011.866,-270.973 3015.3659,-280.973 3018.866,-270.973 3011.866,-270.973"/>
</g>
<!-- D3ngTreeMapComponent  -->
<g id="node32" class="node">
<title>D3ngTreeMapComponent </title>
<polygon fill="#fb8072" stroke="#000000" points="2912.7408,-317 2745.2592,-317 2745.2592,-281 2912.7408,-281 2912.7408,-317"/>
<text text-anchor="middle" x="2829" y="-294.8" font-family="Times,serif" font-size="14.00" fill="#000000">D3ngTreeMapComponent </text>
</g>
<!-- D3ngComponentsModule&#45;&gt;D3ngTreeMapComponent  -->
<g id="edge39" class="edge">
<title>D3ngComponentsModule&#45;&gt;D3ngTreeMapComponent </title>
<path fill="none" stroke="#000000" stroke-dasharray="5,2" d="M2010.7849,-245C2224.5477,-245 2788.7053,-245 2788.7053,-245 2788.7053,-245 2788.7053,-270.7181 2788.7053,-270.7181"/>
<polygon fill="#000000" stroke="#000000" points="2785.2054,-270.718 2788.7053,-280.7181 2792.2054,-270.7181 2785.2054,-270.718"/>
</g>
<!-- D3ngRadialEdgeBundlingComponent  -->
<g id="node33" class="node">
<title>D3ngRadialEdgeBundlingComponent </title>
<polygon fill="#fb8072" stroke="#000000" points="2727.8713,-317 2494.1287,-317 2494.1287,-281 2727.8713,-281 2727.8713,-317"/>
<text text-anchor="middle" x="2611" y="-294.8" font-family="Times,serif" font-size="14.00" fill="#000000">D3ngRadialEdgeBundlingComponent </text>
</g>
<!-- D3ngComponentsModule&#45;&gt;D3ngRadialEdgeBundlingComponent  -->
<g id="edge40" class="edge">
<title>D3ngComponentsModule&#45;&gt;D3ngRadialEdgeBundlingComponent </title>
<path fill="none" stroke="#000000" stroke-dasharray="5,2" d="M2010.9584,-247C2168.1245,-247 2499.273,-247 2499.273,-247 2499.273,-247 2499.273,-270.8129 2499.273,-270.8129"/>
<polygon fill="#000000" stroke="#000000" points="2495.773,-270.8129 2499.273,-280.8129 2502.773,-270.813 2495.773,-270.8129"/>
</g>
<!-- D3ngChordDiagramComponent  -->
<g id="node34" class="node">
<title>D3ngChordDiagramComponent </title>
<polygon fill="#fb8072" stroke="#000000" points="2475.9138,-317 2276.0862,-317 2276.0862,-281 2475.9138,-281 2475.9138,-317"/>
<text text-anchor="middle" x="2376" y="-294.8" font-family="Times,serif" font-size="14.00" fill="#000000">D3ngChordDiagramComponent </text>
</g>
<!-- D3ngComponentsModule&#45;&gt;D3ngChordDiagramComponent  -->
<g id="edge41" class="edge">
<title>D3ngComponentsModule&#45;&gt;D3ngChordDiagramComponent </title>
<path fill="none" stroke="#000000" stroke-dasharray="5,2" d="M2011.027,-249C2118.5877,-249 2295.0976,-249 2295.0976,-249 2295.0976,-249 2295.0976,-270.9489 2295.0976,-270.9489"/>
<polygon fill="#000000" stroke="#000000" points="2291.5977,-270.9488 2295.0976,-280.9489 2298.5977,-270.9489 2291.5977,-270.9488"/>
</g>
<!-- D3ngForceGraphComponent  -->
<g id="node35" class="node">
<title>D3ngForceGraphComponent </title>
<polygon fill="#fb8072" stroke="#000000" points="2258.2933,-317 2075.7067,-317 2075.7067,-281 2258.2933,-281 2258.2933,-317"/>
<text text-anchor="middle" x="2167" y="-294.8" font-family="Times,serif" font-size="14.00" fill="#000000">D3ngForceGraphComponent </text>
</g>
<!-- D3ngComponentsModule&#45;&gt;D3ngForceGraphComponent  -->
<g id="edge42" class="edge">
<title>D3ngComponentsModule&#45;&gt;D3ngForceGraphComponent </title>
<path fill="none" stroke="#000000" stroke-dasharray="5,2" d="M2011.108,-251C2048.971,-251 2085.8263,-251 2085.8263,-251 2085.8263,-251 2085.8263,-270.8533 2085.8263,-270.8533"/>
<polygon fill="#000000" stroke="#000000" points="2082.3263,-270.8532 2085.8263,-280.8533 2089.3263,-270.8533 2082.3263,-270.8532"/>
</g>
<!-- D3ngCollapsibleIndentedTreeComponent  -->
<g id="node36" class="node">
<title>D3ngCollapsibleIndentedTreeComponent </title>
<polygon fill="#fb8072" stroke="#000000" points="2057.3348,-317 1802.6652,-317 1802.6652,-281 2057.3348,-281 2057.3348,-317"/>
<text text-anchor="middle" x="1930" y="-294.8" font-family="Times,serif" font-size="14.00" fill="#000000">D3ngCollapsibleIndentedTreeComponent </text>
</g>
<!-- D3ngComponentsModule&#45;&gt;D3ngCollapsibleIndentedTreeComponent  -->
<g id="edge43" class="edge">
<title>D3ngComponentsModule&#45;&gt;D3ngCollapsibleIndentedTreeComponent </title>
<path fill="none" stroke="#000000" stroke-dasharray="5,2" d="M1930,-252.1061C1930,-252.1061 1930,-270.991 1930,-270.991"/>
<polygon fill="#000000" stroke="#000000" points="1926.5001,-270.9909 1930,-280.991 1933.5001,-270.991 1926.5001,-270.9909"/>
</g>
<!-- D3ngSourceDirective  -->
<g id="node37" class="node">
<title>D3ngSourceDirective </title>
<polygon fill="#fb8072" stroke="#000000" points="1784.5625,-317 1643.4375,-317 1643.4375,-281 1784.5625,-281 1784.5625,-317"/>
<text text-anchor="middle" x="1714" y="-294.8" font-family="Times,serif" font-size="14.00" fill="#000000">D3ngSourceDirective </text>
</g>
<!-- D3ngComponentsModule&#45;&gt;D3ngSourceDirective  -->
<g id="edge44" class="edge">
<title>D3ngComponentsModule&#45;&gt;D3ngSourceDirective </title>
<path fill="none" stroke="#000000" stroke-dasharray="5,2" d="M1849.0429,-251C1803.7837,-251 1756.3957,-251 1756.3957,-251 1756.3957,-251 1756.3957,-270.8533 1756.3957,-270.8533"/>
<polygon fill="#000000" stroke="#000000" points="1752.8958,-270.8532 1756.3957,-280.8533 1759.8958,-270.8533 1752.8958,-270.8532"/>
</g>
<!-- D3ngHistogramComponent  -->
<g id="node38" class="node">
<title>D3ngHistogramComponent </title>
<polygon fill="#fb8072" stroke="#000000" points="1625.5372,-317 1450.4628,-317 1450.4628,-281 1625.5372,-281 1625.5372,-317"/>
<text text-anchor="middle" x="1538" y="-294.8" font-family="Times,serif" font-size="14.00" fill="#000000">D3ngHistogramComponent </text>
</g>
<!-- D3ngComponentsModule&#45;&gt;D3ngHistogramComponent  -->
<g id="edge45" class="edge">
<title>D3ngComponentsModule&#45;&gt;D3ngHistogramComponent </title>
<path fill="none" stroke="#000000" stroke-dasharray="5,2" d="M1848.9002,-249C1747.7031,-249 1587.7867,-249 1587.7867,-249 1587.7867,-249 1587.7867,-270.9489 1587.7867,-270.9489"/>
<polygon fill="#000000" stroke="#000000" points="1584.2867,-270.9488 1587.7867,-280.9489 1591.2867,-270.9489 1584.2867,-270.9488"/>
</g>
<!-- D3ngGroupsComponent  -->
<g id="node39" class="node">
<title>D3ngGroupsComponent </title>
<polygon fill="#fb8072" stroke="#000000" points="1432.6509,-317 1275.3491,-317 1275.3491,-281 1432.6509,-281 1432.6509,-317"/>
<text text-anchor="middle" x="1354" y="-294.8" font-family="Times,serif" font-size="14.00" fill="#000000">D3ngGroupsComponent </text>
</g>
<!-- D3ngComponentsModule&#45;&gt;D3ngGroupsComponent  -->
<g id="edge46" class="edge">
<title>D3ngComponentsModule&#45;&gt;D3ngGroupsComponent </title>
<path fill="none" stroke="#000000" stroke-dasharray="5,2" d="M1849.1629,-247C1706.1277,-247 1423.3708,-247 1423.3708,-247 1423.3708,-247 1423.3708,-270.8129 1423.3708,-270.8129"/>
<polygon fill="#000000" stroke="#000000" points="1419.8709,-270.8129 1423.3708,-280.8129 1426.8709,-270.813 1419.8709,-270.8129"/>
</g>
<!-- D3ngGroupSelectionComponent  -->
<g id="node40" class="node">
<title>D3ngGroupSelectionComponent </title>
<polygon fill="#fb8072" stroke="#000000" points="1257.8045,-317 1054.1955,-317 1054.1955,-281 1257.8045,-281 1257.8045,-317"/>
<text text-anchor="middle" x="1156" y="-294.8" font-family="Times,serif" font-size="14.00" fill="#000000">D3ngGroupSelectionComponent </text>
</g>
<!-- D3ngComponentsModule&#45;&gt;D3ngGroupSelectionComponent  -->
<g id="edge47" class="edge">
<title>D3ngComponentsModule&#45;&gt;D3ngGroupSelectionComponent </title>
<path fill="none" stroke="#000000" stroke-dasharray="5,2" d="M1849.2063,-245C1655.0797,-245 1178.3757,-245 1178.3757,-245 1178.3757,-245 1178.3757,-270.7181 1178.3757,-270.7181"/>
<polygon fill="#000000" stroke="#000000" points="1174.8758,-270.718 1178.3757,-280.7181 1181.8758,-270.7181 1174.8758,-270.718"/>
</g>
<!-- D3ngMapComponent  -->
<g id="node41" class="node">
<title>D3ngMapComponent </title>
<polygon fill="#fb8072" stroke="#000000" points="1035.5988,-317 894.4012,-317 894.4012,-281 1035.5988,-281 1035.5988,-317"/>
<text text-anchor="middle" x="965" y="-294.8" font-family="Times,serif" font-size="14.00" fill="#000000">D3ngMapComponent </text>
</g>
<!-- D3ngComponentsModule&#45;&gt;D3ngMapComponent  -->
<g id="edge48" class="edge">
<title>D3ngComponentsModule&#45;&gt;D3ngMapComponent </title>
<path fill="none" stroke="#000000" stroke-dasharray="5,2" d="M1848.8904,-243C1622.8478,-243 1002.2912,-243 1002.2912,-243 1002.2912,-243 1002.2912,-270.973 1002.2912,-270.973"/>
<polygon fill="#000000" stroke="#000000" points="998.7913,-270.973 1002.2912,-280.973 1005.7913,-270.973 998.7913,-270.973"/>
</g>
<!-- D3ngBubbleHistogramComponent  -->
<g id="node42" class="node">
<title>D3ngBubbleHistogramComponent </title>
<polygon fill="#fb8072" stroke="#000000" points="875.9795,-317 660.0205,-317 660.0205,-281 875.9795,-281 875.9795,-317"/>
<text text-anchor="middle" x="768" y="-294.8" font-family="Times,serif" font-size="14.00" fill="#000000">D3ngBubbleHistogramComponent </text>
</g>
<!-- D3ngComponentsModule&#45;&gt;D3ngBubbleHistogramComponent  -->
<g id="edge49" class="edge">
<title>D3ngComponentsModule&#45;&gt;D3ngBubbleHistogramComponent </title>
<path fill="none" stroke="#000000" stroke-dasharray="5,2" d="M1848.8782,-242C1598.8077,-242 856.5693,-242 856.5693,-242 856.5693,-242 856.5693,-270.9648 856.5693,-270.9648"/>
<polygon fill="#000000" stroke="#000000" points="853.0693,-270.9648 856.5693,-280.9648 860.0693,-270.9649 853.0693,-270.9648"/>
</g>
<!-- D3ngPathPlotComponent  -->
<g id="node43" class="node">
<title>D3ngPathPlotComponent </title>
<polygon fill="#fb8072" stroke="#000000" points="642.8911,-317 479.1089,-317 479.1089,-281 642.8911,-281 642.8911,-317"/>
<text text-anchor="middle" x="561" y="-294.8" font-family="Times,serif" font-size="14.00" fill="#000000">D3ngPathPlotComponent </text>
</g>
<!-- D3ngComponentsModule&#45;&gt;D3ngPathPlotComponent  -->
<g id="edge50" class="edge">
<title>D3ngComponentsModule&#45;&gt;D3ngPathPlotComponent </title>
<path fill="none" stroke="#000000" stroke-dasharray="5,2" d="M1849.0231,-240C1558.6986,-240 587.1552,-240 587.1552,-240 587.1552,-240 587.1552,-270.9775 587.1552,-270.9775"/>
<polygon fill="#000000" stroke="#000000" points="583.6552,-270.9774 587.1552,-280.9775 590.6552,-270.9775 583.6552,-270.9774"/>
</g>
<!-- { provide: D3ngChart, useExisting: &#160;} -->
<g id="node17" class="node">
<title>{ provide: D3ngChart, useExisting: &#160;}</title>
<ellipse fill="#fdb462" stroke="#000000" cx="3414" cy="-104" rx="157.7599" ry="18"/>
<text text-anchor="middle" x="3414" y="-99.8" font-family="Times,serif" font-size="14.00" fill="#000000">{ provide: D3ngChart, useExisting: &#160;}</text>
</g>
<!-- { provide: D3ngChart, useExisting: &#160;}&#45;&gt;D3ngParallelCoordinatesComponent -->
<g id="edge3" class="edge">
<title>{ provide: D3ngChart, useExisting: &#160;}&#45;&gt;D3ngParallelCoordinatesComponent</title>
<path fill="none" stroke="#000000" d="M3550.878,-95C3791.0175,-95 4263,-95 4263,-95 4263,-95 4263,-140.7079 4263,-140.7079"/>
<polygon fill="#000000" stroke="#000000" points="4259.5001,-140.7078 4263,-150.7079 4266.5001,-140.7079 4259.5001,-140.7078"/>
</g>
<!-- { provide: D3ngChart, useExisting: &#160;}&#45;&gt;D3ngScatterPlotComponent -->
<g id="edge5" class="edge">
<title>{ provide: D3ngChart, useExisting: &#160;}&#45;&gt;D3ngScatterPlotComponent</title>
<path fill="none" stroke="#000000" d="M3571.6923,-104C3759.1732,-104 4047,-104 4047,-104 4047,-104 4047,-140.8939 4047,-140.8939"/>
<polygon fill="#000000" stroke="#000000" points="4043.5001,-140.8938 4047,-150.8939 4050.5001,-140.8939 4043.5001,-140.8938"/>
</g>
<!-- { provide: D3ngChart, useExisting: &#160;}&#45;&gt;D3ngTreeMapComponent -->
<g id="edge7" class="edge">
<title>{ provide: D3ngChart, useExisting: &#160;}&#45;&gt;D3ngTreeMapComponent</title>
<path fill="none" stroke="#000000" d="M3550.5418,-113C3681.6741,-113 3860,-113 3860,-113 3860,-113 3860,-140.973 3860,-140.973"/>
<polygon fill="#000000" stroke="#000000" points="3856.5001,-140.973 3860,-150.973 3863.5001,-140.973 3856.5001,-140.973"/>
</g>
<!-- { provide: D3ngChart, useExisting: &#160;}&#45;&gt;D3ngRadialEdgeBundlingComponent -->
<g id="edge9" class="edge">
<title>{ provide: D3ngChart, useExisting: &#160;}&#45;&gt;D3ngRadialEdgeBundlingComponent</title>
<path fill="none" stroke="#000000" d="M3550.8472,-113.038C3550.8472,-113.038 3550.8472,-140.9586 3550.8472,-140.9586"/>
<polygon fill="#000000" stroke="#000000" points="3547.3473,-140.9586 3550.8472,-150.9586 3554.3473,-140.9587 3547.3473,-140.9586"/>
</g>
<!-- { provide: D3ngChart, useExisting: &#160;}&#45;&gt;D3ngChordDiagramComponent -->
<g id="edge11" class="edge">
<title>{ provide: D3ngChart, useExisting: &#160;}&#45;&gt;D3ngChordDiagramComponent</title>
<path fill="none" stroke="#000000" d="M3414,-122.1061C3414,-122.1061 3414,-140.991 3414,-140.991"/>
<polygon fill="#000000" stroke="#000000" points="3410.5001,-140.9909 3414,-150.991 3417.5001,-140.991 3410.5001,-140.9909"/>
</g>
<!-- { provide: D3ngChart, useExisting: &#160;}&#45;&gt;D3ngForceGraphComponent -->
<g id="edge13" class="edge">
<title>{ provide: D3ngChart, useExisting: &#160;}&#45;&gt;D3ngForceGraphComponent</title>
<path fill="none" stroke="#000000" d="M3277.0084,-113.038C3277.0084,-113.038 3277.0084,-140.9586 3277.0084,-140.9586"/>
<polygon fill="#000000" stroke="#000000" points="3273.5085,-140.9586 3277.0084,-150.9586 3280.5085,-140.9587 3273.5085,-140.9586"/>
</g>
<!-- { provide: D3ngChart, useExisting: &#160;}&#45;&gt;D3ngCollapsibleIndentedTreeComponent -->
<g id="edge15" class="edge">
<title>{ provide: D3ngChart, useExisting: &#160;}&#45;&gt;D3ngCollapsibleIndentedTreeComponent</title>
<path fill="none" stroke="#000000" d="M3277.2038,-113C3148.3651,-113 2975,-113 2975,-113 2975,-113 2975,-140.973 2975,-140.973"/>
<polygon fill="#000000" stroke="#000000" points="2971.5001,-140.973 2975,-150.973 2978.5001,-140.973 2971.5001,-140.973"/>
</g>
<!-- { provide: D3ngChart, useExisting: &#160;}&#45;&gt;D3ngMapComponent -->
<g id="edge21" class="edge">
<title>{ provide: D3ngChart, useExisting: &#160;}&#45;&gt;D3ngMapComponent</title>
<path fill="none" stroke="#000000" d="M3256.2438,-104C2892.7123,-104 2027,-104 2027,-104 2027,-104 2027,-140.8939 2027,-140.8939"/>
<polygon fill="#000000" stroke="#000000" points="2023.5001,-140.8938 2027,-150.8939 2030.5001,-140.8939 2023.5001,-140.8938"/>
</g>
<!-- { provide: D3ngChart, useExisting: &#160;}&#45;&gt;D3ngPathPlotComponent -->
<g id="edge24" class="edge">
<title>{ provide: D3ngChart, useExisting: &#160;}&#45;&gt;D3ngPathPlotComponent</title>
<path fill="none" stroke="#000000" d="M3277.3431,-95C2859.9522,-95 1630,-95 1630,-95 1630,-95 1630,-140.7079 1630,-140.7079"/>
<polygon fill="#000000" stroke="#000000" points="1626.5001,-140.7078 1630,-150.7079 1633.5001,-140.7079 1626.5001,-140.7078"/>
</g>
<!-- CommonModule -->
<g id="node18" class="node">
<title>CommonModule</title>
<polygon fill="#8dd3c7" stroke="#000000" points="1525.6681,-187 1522.6681,-191 1501.6681,-191 1498.6681,-187 1414.3319,-187 1414.3319,-151 1525.6681,-151 1525.6681,-187"/>
<text text-anchor="middle" x="1470" y="-164.8" font-family="Times,serif" font-size="14.00" fill="#000000">CommonModule</text>
</g>
<!-- CommonModule&#45;&gt;D3ngComponentsModule -->
<g id="edge25" class="edge">
<title>CommonModule&#45;&gt;D3ngComponentsModule</title>
<path fill="none" stroke="#000000" d="M1488.1576,-187.1243C1488.1576,-201.7832 1488.1576,-220 1488.1576,-220 1488.1576,-220 1839.2163,-220 1839.2163,-220"/>
<polygon fill="#000000" stroke="#000000" points="1839.2164,-223.5001 1849.2163,-220 1839.2163,-216.5001 1839.2164,-223.5001"/>
</g>
<!-- BrowserModule -->
<g id="node19" class="node">
<title>BrowserModule</title>
<polygon fill="#8dd3c7" stroke="#000000" points="1396.4734,-187 1393.4734,-191 1372.4734,-191 1369.4734,-187 1289.5266,-187 1289.5266,-151 1396.4734,-151 1396.4734,-187"/>
<text text-anchor="middle" x="1343" y="-164.8" font-family="Times,serif" font-size="14.00" fill="#000000">BrowserModule</text>
</g>
<!-- BrowserModule&#45;&gt;D3ngComponentsModule -->
<g id="edge26" class="edge">
<title>BrowserModule&#45;&gt;D3ngComponentsModule</title>
<path fill="none" stroke="#000000" d="M1343,-187.2396C1343,-202.5706 1343,-222 1343,-222 1343,-222 1838.9965,-222 1838.9965,-222"/>
<polygon fill="#000000" stroke="#000000" points="1838.9965,-225.5001 1848.9965,-222 1838.9964,-218.5001 1838.9965,-225.5001"/>
</g>
<!-- BrowserAnimationsModule -->
<g id="node20" class="node">
<title>BrowserAnimationsModule</title>
<polygon fill="#8dd3c7" stroke="#000000" points="1271.3019,-187 1268.3019,-191 1247.3019,-191 1244.3019,-187 1098.6981,-187 1098.6981,-151 1271.3019,-151 1271.3019,-187"/>
<text text-anchor="middle" x="1185" y="-164.8" font-family="Times,serif" font-size="14.00" fill="#000000">BrowserAnimationsModule</text>
</g>
<!-- BrowserAnimationsModule&#45;&gt;D3ngComponentsModule -->
<g id="edge27" class="edge">
<title>BrowserAnimationsModule&#45;&gt;D3ngComponentsModule</title>
<path fill="none" stroke="#000000" d="M1264.5265,-187.0091C1264.5265,-203.0494 1264.5265,-224 1264.5265,-224 1264.5265,-224 1839.0652,-224 1839.0652,-224"/>
<polygon fill="#000000" stroke="#000000" points="1839.0652,-227.5001 1849.0652,-224 1839.0652,-220.5001 1839.0652,-227.5001"/>
</g>
<!-- MdSliderModule -->
<g id="node21" class="node">
<title>MdSliderModule</title>
<polygon fill="#8dd3c7" stroke="#000000" points="1081.4342,-187 1078.4342,-191 1057.4342,-191 1054.4342,-187 968.5658,-187 968.5658,-151 1081.4342,-151 1081.4342,-187"/>
<text text-anchor="middle" x="1025" y="-164.8" font-family="Times,serif" font-size="14.00" fill="#000000">MdSliderModule</text>
</g>
<!-- MdSliderModule&#45;&gt;D3ngComponentsModule -->
<g id="edge28" class="edge">
<title>MdSliderModule&#45;&gt;D3ngComponentsModule</title>
<path fill="none" stroke="#000000" d="M1067.6573,-187.027C1067.6573,-203.3976 1067.6573,-225 1067.6573,-225 1067.6573,-225 1839.2605,-225 1839.2605,-225"/>
<polygon fill="#000000" stroke="#000000" points="1839.2605,-228.5001 1849.2605,-225 1839.2604,-221.5001 1839.2605,-228.5001"/>
</g>
<!-- MdSelectModule -->
<g id="node22" class="node">
<title>MdSelectModule</title>
<polygon fill="#8dd3c7" stroke="#000000" points="950.7022,-187 947.7022,-191 926.7022,-191 923.7022,-187 837.2978,-187 837.2978,-151 950.7022,-151 950.7022,-187"/>
<text text-anchor="middle" x="894" y="-164.8" font-family="Times,serif" font-size="14.00" fill="#000000">MdSelectModule</text>
</g>
<!-- MdSelectModule&#45;&gt;D3ngComponentsModule -->
<g id="edge29" class="edge">
<title>MdSelectModule&#45;&gt;D3ngComponentsModule</title>
<path fill="none" stroke="#000000" d="M922.401,-187.0336C922.401,-204.0597 922.401,-227 922.401,-227 922.401,-227 1839.2472,-227 1839.2472,-227"/>
<polygon fill="#000000" stroke="#000000" points="1839.2472,-230.5001 1849.2472,-227 1839.2472,-223.5001 1839.2472,-230.5001"/>
</g>
<!-- MdRadioModule -->
<g id="node23" class="node">
<title>MdRadioModule</title>
<polygon fill="#8dd3c7" stroke="#000000" points="819.437,-187 816.437,-191 795.437,-191 792.437,-187 706.563,-187 706.563,-151 819.437,-151 819.437,-187"/>
<text text-anchor="middle" x="763" y="-164.8" font-family="Times,serif" font-size="14.00" fill="#000000">MdRadioModule</text>
</g>
<!-- MdRadioModule&#45;&gt;D3ngComponentsModule -->
<g id="edge30" class="edge">
<title>MdRadioModule&#45;&gt;D3ngComponentsModule</title>
<path fill="none" stroke="#000000" d="M763,-187.002C763,-204.6754 763,-229 763,-229 763,-229 1838.8654,-229 1838.8654,-229"/>
<polygon fill="#000000" stroke="#000000" points="1838.8654,-232.5001 1848.8654,-229 1838.8653,-225.5001 1838.8654,-232.5001"/>
</g>
<!-- MdButtonToggleModule -->
<g id="node24" class="node">
<title>MdButtonToggleModule</title>
<polygon fill="#8dd3c7" stroke="#000000" points="688.2702,-187 685.2702,-191 664.2702,-191 661.2702,-187 531.7298,-187 531.7298,-151 688.2702,-151 688.2702,-187"/>
<text text-anchor="middle" x="610" y="-164.8" font-family="Times,serif" font-size="14.00" fill="#000000">MdButtonToggleModule</text>
</g>
<!-- MdButtonToggleModule&#45;&gt;D3ngComponentsModule -->
<g id="edge31" class="edge">
<title>MdButtonToggleModule&#45;&gt;D3ngComponentsModule</title>
<path fill="none" stroke="#000000" d="M674.3228,-187.2667C674.3228,-205.5552 674.3228,-231 674.3228,-231 674.3228,-231 1839.0609,-231 1839.0609,-231"/>
<polygon fill="#000000" stroke="#000000" points="1839.0609,-234.5001 1849.0609,-231 1839.0609,-227.5001 1839.0609,-234.5001"/>
</g>
<!-- MdSlideToggleModule -->
<g id="node25" class="node">
<title>MdSlideToggleModule</title>
<polygon fill="#8dd3c7" stroke="#000000" points="513.9312,-187 510.9312,-191 489.9312,-191 486.9312,-187 366.0688,-187 366.0688,-151 513.9312,-151 513.9312,-187"/>
<text text-anchor="middle" x="440" y="-164.8" font-family="Times,serif" font-size="14.00" fill="#000000">MdSlideToggleModule</text>
</g>
<!-- MdSlideToggleModule&#45;&gt;D3ngComponentsModule -->
<g id="edge32" class="edge">
<title>MdSlideToggleModule&#45;&gt;D3ngComponentsModule</title>
<path fill="none" stroke="#000000" d="M496.51,-187.1686C496.51,-206.0898 496.51,-233 496.51,-233 496.51,-233 1839.0816,-233 1839.0816,-233"/>
<polygon fill="#000000" stroke="#000000" points="1839.0816,-236.5001 1849.0816,-233 1839.0815,-229.5001 1839.0816,-236.5001"/>
</g>
<!-- MdInputModule -->
<g id="node26" class="node">
<title>MdInputModule</title>
<polygon fill="#8dd3c7" stroke="#000000" points="348.0465,-187 345.0465,-191 324.0465,-191 321.0465,-187 239.9535,-187 239.9535,-151 348.0465,-151 348.0465,-187"/>
<text text-anchor="middle" x="294" y="-164.8" font-family="Times,serif" font-size="14.00" fill="#000000">MdInputModule</text>
</g>
<!-- MdInputModule&#45;&gt;D3ngComponentsModule -->
<g id="edge33" class="edge">
<title>MdInputModule&#45;&gt;D3ngComponentsModule</title>
<path fill="none" stroke="#000000" d="M294,-187.1061C294,-206.3391 294,-234 294,-234 294,-234 1839.1497,-234 1839.1497,-234"/>
<polygon fill="#000000" stroke="#000000" points="1839.1498,-237.5001 1849.1497,-234 1839.1497,-230.5001 1839.1498,-237.5001"/>
</g>
<!-- FormsModule -->
<g id="node27" class="node">
<title>FormsModule</title>
<polygon fill="#8dd3c7" stroke="#000000" points="221.8288,-187 218.8288,-191 197.8288,-191 194.8288,-187 126.1712,-187 126.1712,-151 221.8288,-151 221.8288,-187"/>
<text text-anchor="middle" x="174" y="-164.8" font-family="Times,serif" font-size="14.00" fill="#000000">FormsModule</text>
</g>
<!-- FormsModule&#45;&gt;D3ngComponentsModule -->
<g id="edge34" class="edge">
<title>FormsModule&#45;&gt;D3ngComponentsModule</title>
<path fill="none" stroke="#000000" d="M174,-187.308C174,-207.1455 174,-236 174,-236 174,-236 1839.1167,-236 1839.1167,-236"/>
<polygon fill="#000000" stroke="#000000" points="1839.1168,-239.5001 1849.1167,-236 1839.1167,-232.5001 1839.1168,-239.5001"/>
</g>
<!-- HttpModule -->
<g id="node28" class="node">
<title>HttpModule</title>
<polygon fill="#8dd3c7" stroke="#000000" points="108.4387,-187 105.4387,-191 84.4387,-191 81.4387,-187 23.5613,-187 23.5613,-151 108.4387,-151 108.4387,-187"/>
<text text-anchor="middle" x="66" y="-164.8" font-family="Times,serif" font-size="14.00" fill="#000000">HttpModule</text>
</g>
<!-- HttpModule&#45;&gt;D3ngComponentsModule -->
<g id="edge35" class="edge">
<title>HttpModule&#45;&gt;D3ngComponentsModule</title>
<path fill="none" stroke="#000000" d="M66,-187.1289C66,-207.5724 66,-238 66,-238 66,-238 1839.0081,-238 1839.0081,-238"/>
<polygon fill="#000000" stroke="#000000" points="1839.0081,-241.5001 1849.0081,-238 1839.008,-234.5001 1839.0081,-241.5001"/>
</g>
</g>
</svg>
