<?xml version="1.0" encoding="UTF-8" standalone="no"?>
<!DOCTYPE svg PUBLIC "-//W3C//DTD SVG 1.1//EN"
 "http://www.w3.org/Graphics/SVG/1.1/DTD/svg11.dtd">
<!-- Generated by graphviz version 2.40.1 (20161225.0304)
 -->
<!-- Title: dependencies Pages: 1 -->
<svg width="2670pt" height="284pt"
 viewBox="0.00 0.00 2670.00 284.00" xmlns="http://www.w3.org/2000/svg" xmlns:xlink="http://www.w3.org/1999/xlink">
<g id="graph0" class="graph" transform="scale(1 1) rotate(0) translate(4 280)">
<title>dependencies</title>
<polygon fill="#ffffff" stroke="transparent" points="-4,4 -4,-280 2666,-280 2666,4 -4,4"/>
<text text-anchor="start" x="1310.0091" y="-42.4" font-family="sans-serif" font-weight="bold" font-size="14.00" fill="#000000">Legend</text>
<polygon fill="#ffffb3" stroke="transparent" points="1097,-10 1097,-30 1117,-30 1117,-10 1097,-10"/>
<text text-anchor="start" x="1120.629" y="-15.4" font-family="sans-serif" font-size="14.00" fill="#000000"> &#160;Declarations</text>
<polygon fill="#8dd3c7" stroke="transparent" points="1210,-10 1210,-30 1230,-30 1230,-10 1210,-10"/>
<text text-anchor="start" x="1233.7251" y="-15.4" font-family="sans-serif" font-size="14.00" fill="#000000"> &#160;Module</text>
<polygon fill="#80b1d3" stroke="transparent" points="1296,-10 1296,-30 1316,-30 1316,-10 1296,-10"/>
<text text-anchor="start" x="1319.7812" y="-15.4" font-family="sans-serif" font-size="14.00" fill="#000000"> &#160;Bootstrap</text>
<polygon fill="#fdb462" stroke="transparent" points="1393,-10 1393,-30 1413,-30 1413,-10 1393,-10"/>
<text text-anchor="start" x="1416.6732" y="-15.4" font-family="sans-serif" font-size="14.00" fill="#000000"> &#160;Providers</text>
<polygon fill="#fb8072" stroke="transparent" points="1489,-10 1489,-30 1509,-30 1509,-10 1489,-10"/>
<text text-anchor="start" x="1512.7258" y="-15.4" font-family="sans-serif" font-size="14.00" fill="#000000"> &#160;Exports</text>
<g id="clust1" class="cluster">
<title>cluster_D3ngComponentsModule</title>
<polygon fill="none" stroke="#000000" stroke-dasharray="1,5" points="8,-70 8,-268 2654,-268 2654,-70 8,-70"/>
</g>
<g id="clust3" class="cluster">
<title>cluster_D3ngComponentsModule_imports</title>
<polygon fill="none" stroke="#000000" points="550,-78 550,-130 2068,-130 2068,-78 550,-78"/>
</g>
<g id="clust4" class="cluster">
<title>cluster_D3ngComponentsModule_exports</title>
<polygon fill="none" stroke="#000000" points="16,-208 16,-260 2646,-260 2646,-208 16,-208"/>
</g>
<!-- CommonModule -->
<g id="node1" class="node">
<title>CommonModule</title>
<polygon fill="#8dd3c7" stroke="#000000" points="2059.6681,-122 2056.6681,-126 2035.6681,-126 2032.6681,-122 1948.3319,-122 1948.3319,-86 2059.6681,-86 2059.6681,-122"/>
<text text-anchor="middle" x="2004" y="-99.8" font-family="Times,serif" font-size="14.00" fill="#000000">CommonModule</text>
</g>
<!-- D3ngComponentsModule -->
<g id="node12" class="node">
<title>D3ngComponentsModule</title>
<polygon fill="#8dd3c7" stroke="#000000" points="1377.934,-187 1374.934,-191 1353.934,-191 1350.934,-187 1216.066,-187 1216.066,-151 1377.934,-151 1377.934,-187"/>
<text text-anchor="middle" x="1297" y="-164.8" font-family="Times,serif" font-size="14.00" fill="#000000">D3ngComponentsModule</text>
</g>
<!-- CommonModule&#45;&gt;D3ngComponentsModule -->
<g id="edge1" class="edge">
<title>CommonModule&#45;&gt;D3ngComponentsModule</title>
<path fill="none" stroke="#000000" d="M1995.3933,-122.2667C1995.3933,-140.5552 1995.3933,-166 1995.3933,-166 1995.3933,-166 1387.7968,-166 1387.7968,-166"/>
<polygon fill="#000000" stroke="#000000" points="1387.7969,-162.5001 1377.7968,-166 1387.7968,-169.5001 1387.7969,-162.5001"/>
</g>
<!-- BrowserModule -->
<g id="node2" class="node">
<title>BrowserModule</title>
<polygon fill="#8dd3c7" stroke="#000000" points="1930.4734,-122 1927.4734,-126 1906.4734,-126 1903.4734,-122 1823.5266,-122 1823.5266,-86 1930.4734,-86 1930.4734,-122"/>
<text text-anchor="middle" x="1877" y="-99.8" font-family="Times,serif" font-size="14.00" fill="#000000">BrowserModule</text>
</g>
<!-- BrowserModule&#45;&gt;D3ngComponentsModule -->
<g id="edge2" class="edge">
<title>BrowserModule&#45;&gt;D3ngComponentsModule</title>
<path fill="none" stroke="#000000" d="M1840.5994,-122.0225C1840.5994,-139.3734 1840.5994,-163 1840.5994,-163 1840.5994,-163 1387.7953,-163 1387.7953,-163"/>
<polygon fill="#000000" stroke="#000000" points="1387.7954,-159.5001 1377.7953,-163 1387.7953,-166.5001 1387.7954,-159.5001"/>
</g>
<!-- BrowserAnimationsModule -->
<g id="node3" class="node">
<title>BrowserAnimationsModule</title>
<polygon fill="#8dd3c7" stroke="#000000" points="1805.3019,-122 1802.3019,-126 1781.3019,-126 1778.3019,-122 1632.6981,-122 1632.6981,-86 1805.3019,-86 1805.3019,-122"/>
<text text-anchor="middle" x="1719" y="-99.8" font-family="Times,serif" font-size="14.00" fill="#000000">BrowserAnimationsModule</text>
</g>
<!-- BrowserAnimationsModule&#45;&gt;D3ngComponentsModule -->
<g id="edge3" class="edge">
<title>BrowserAnimationsModule&#45;&gt;D3ngComponentsModule</title>
<path fill="none" stroke="#000000" d="M1719,-122.027C1719,-138.3976 1719,-160 1719,-160 1719,-160 1387.8665,-160 1387.8665,-160"/>
<polygon fill="#000000" stroke="#000000" points="1387.8666,-156.5001 1377.8665,-160 1387.8665,-163.5001 1387.8666,-156.5001"/>
</g>
<!-- MdSliderModule -->
<g id="node4" class="node">
<title>MdSliderModule</title>
<polygon fill="#8dd3c7" stroke="#000000" points="1615.4342,-122 1612.4342,-126 1591.4342,-126 1588.4342,-122 1502.5658,-122 1502.5658,-86 1615.4342,-86 1615.4342,-122"/>
<text text-anchor="middle" x="1559" y="-99.8" font-family="Times,serif" font-size="14.00" fill="#000000">MdSliderModule</text>
</g>
<!-- MdSliderModule&#45;&gt;D3ngComponentsModule -->
<g id="edge4" class="edge">
<title>MdSliderModule&#45;&gt;D3ngComponentsModule</title>
<path fill="none" stroke="#000000" d="M1554.3701,-122.2396C1554.3701,-137.5706 1554.3701,-157 1554.3701,-157 1554.3701,-157 1387.7274,-157 1387.7274,-157"/>
<polygon fill="#000000" stroke="#000000" points="1387.7274,-153.5001 1377.7274,-157 1387.7273,-160.5001 1387.7274,-153.5001"/>
</g>
<!-- MdSelectModule -->
<g id="node5" class="node">
<title>MdSelectModule</title>
<polygon fill="#8dd3c7" stroke="#000000" points="1484.7022,-122 1481.7022,-126 1460.7022,-126 1457.7022,-122 1371.2978,-122 1371.2978,-86 1484.7022,-86 1484.7022,-122"/>
<text text-anchor="middle" x="1428" y="-99.8" font-family="Times,serif" font-size="14.00" fill="#000000">MdSelectModule</text>
</g>
<!-- MdSelectModule&#45;&gt;D3ngComponentsModule -->
<g id="edge5" class="edge">
<title>MdSelectModule&#45;&gt;D3ngComponentsModule</title>
<path fill="none" stroke="#000000" d="M1383.0567,-122.0511C1383.0567,-136.373 1383.0567,-154 1383.0567,-154 1383.0567,-154 1382.5441,-154 1382.5441,-154"/>
<polygon fill="#000000" stroke="#000000" points="1387.9312,-150.5002 1377.9311,-154 1387.9311,-157.5002 1387.9312,-150.5002"/>
</g>
<!-- MdRadioModule -->
<g id="node6" class="node">
<title>MdRadioModule</title>
<polygon fill="#8dd3c7" stroke="#000000" points="1353.437,-122 1350.437,-126 1329.437,-126 1326.437,-122 1240.563,-122 1240.563,-86 1353.437,-86 1353.437,-122"/>
<text text-anchor="middle" x="1297" y="-99.8" font-family="Times,serif" font-size="14.00" fill="#000000">MdRadioModule</text>
</g>
<!-- MdRadioModule&#45;&gt;D3ngComponentsModule -->
<g id="edge6" class="edge">
<title>MdRadioModule&#45;&gt;D3ngComponentsModule</title>
<path fill="none" stroke="#000000" d="M1297,-122.1061C1297,-122.1061 1297,-140.991 1297,-140.991"/>
<polygon fill="#000000" stroke="#000000" points="1293.5001,-140.9909 1297,-150.991 1300.5001,-140.991 1293.5001,-140.9909"/>
</g>
<!-- MdButtonToggleModule -->
<g id="node7" class="node">
<title>MdButtonToggleModule</title>
<polygon fill="#8dd3c7" stroke="#000000" points="1222.2702,-122 1219.2702,-126 1198.2702,-126 1195.2702,-122 1065.7298,-122 1065.7298,-86 1222.2702,-86 1222.2702,-122"/>
<text text-anchor="middle" x="1144" y="-99.8" font-family="Times,serif" font-size="14.00" fill="#000000">MdButtonToggleModule</text>
</g>
<!-- MdButtonToggleModule&#45;&gt;D3ngComponentsModule -->
<g id="edge7" class="edge">
<title>MdButtonToggleModule&#45;&gt;D3ngComponentsModule</title>
<path fill="none" stroke="#000000" d="M1210.9434,-122.1532C1210.9434,-145.7566 1210.9434,-184 1210.9434,-184 1210.9434,-184 1211.4559,-184 1211.4559,-184"/>
<polygon fill="#000000" stroke="#000000" points="1206.0689,-187.5002 1216.0689,-184 1206.0688,-180.5002 1206.0689,-187.5002"/>
</g>
<!-- MdSlideToggleModule -->
<g id="node8" class="node">
<title>MdSlideToggleModule</title>
<polygon fill="#8dd3c7" stroke="#000000" points="1047.9312,-122 1044.9312,-126 1023.9312,-126 1020.9312,-122 900.0688,-122 900.0688,-86 1047.9312,-86 1047.9312,-122"/>
<text text-anchor="middle" x="974" y="-99.8" font-family="Times,serif" font-size="14.00" fill="#000000">MdSlideToggleModule</text>
</g>
<!-- MdSlideToggleModule&#45;&gt;D3ngComponentsModule -->
<g id="edge8" class="edge">
<title>MdSlideToggleModule&#45;&gt;D3ngComponentsModule</title>
<path fill="none" stroke="#000000" d="M990.274,-122.0511C990.274,-136.373 990.274,-154 990.274,-154 990.274,-154 1206.0101,-154 1206.0101,-154"/>
<polygon fill="#000000" stroke="#000000" points="1206.0102,-157.5001 1216.0101,-154 1206.0101,-150.5001 1206.0102,-157.5001"/>
</g>
<!-- MdInputModule -->
<g id="node9" class="node">
<title>MdInputModule</title>
<polygon fill="#8dd3c7" stroke="#000000" points="882.0465,-122 879.0465,-126 858.0465,-126 855.0465,-122 773.9535,-122 773.9535,-86 882.0465,-86 882.0465,-122"/>
<text text-anchor="middle" x="828" y="-99.8" font-family="Times,serif" font-size="14.00" fill="#000000">MdInputModule</text>
</g>
<!-- MdInputModule&#45;&gt;D3ngComponentsModule -->
<g id="edge9" class="edge">
<title>MdInputModule&#45;&gt;D3ngComponentsModule</title>
<path fill="none" stroke="#000000" d="M828,-122.2396C828,-137.5706 828,-157 828,-157 828,-157 1206.1091,-157 1206.1091,-157"/>
<polygon fill="#000000" stroke="#000000" points="1206.1091,-160.5001 1216.1091,-157 1206.1091,-153.5001 1206.1091,-160.5001"/>
</g>
<!-- FormsModule -->
<g id="node10" class="node">
<title>FormsModule</title>
<polygon fill="#8dd3c7" stroke="#000000" points="755.8288,-122 752.8288,-126 731.8288,-126 728.8288,-122 660.1712,-122 660.1712,-86 755.8288,-86 755.8288,-122"/>
<text text-anchor="middle" x="708" y="-99.8" font-family="Times,serif" font-size="14.00" fill="#000000">FormsModule</text>
</g>
<!-- FormsModule&#45;&gt;D3ngComponentsModule -->
<g id="edge10" class="edge">
<title>FormsModule&#45;&gt;D3ngComponentsModule</title>
<path fill="none" stroke="#000000" d="M723.791,-122.027C723.791,-138.3976 723.791,-160 723.791,-160 723.791,-160 1206.0889,-160 1206.0889,-160"/>
<polygon fill="#000000" stroke="#000000" points="1206.0889,-163.5001 1216.0889,-160 1206.0889,-156.5001 1206.0889,-163.5001"/>
</g>
<!-- HttpModule -->
<g id="node11" class="node">
<title>HttpModule</title>
<polygon fill="#8dd3c7" stroke="#000000" points="642.4387,-122 639.4387,-126 618.4387,-126 615.4387,-122 557.5613,-122 557.5613,-86 642.4387,-86 642.4387,-122"/>
<text text-anchor="middle" x="600" y="-99.8" font-family="Times,serif" font-size="14.00" fill="#000000">HttpModule</text>
</g>
<!-- HttpModule&#45;&gt;D3ngComponentsModule -->
<g id="edge11" class="edge">
<title>HttpModule&#45;&gt;D3ngComponentsModule</title>
<path fill="none" stroke="#000000" d="M611.3501,-122.0225C611.3501,-139.3734 611.3501,-163 611.3501,-163 611.3501,-163 1205.993,-163 1205.993,-163"/>
<polygon fill="#000000" stroke="#000000" points="1205.9931,-166.5001 1215.993,-163 1205.993,-159.5001 1205.9931,-166.5001"/>
</g>
<!-- D3ngListComponent  -->
<g id="node13" class="node">
<title>D3ngListComponent </title>
<polygon fill="#fb8072" stroke="#000000" points="2637.7177,-252 2500.2823,-252 2500.2823,-216 2637.7177,-216 2637.7177,-252"/>
<text text-anchor="middle" x="2569" y="-229.8" font-family="Times,serif" font-size="14.00" fill="#000000">D3ngListComponent </text>
</g>
<!-- D3ngComponentsModule&#45;&gt;D3ngListComponent  -->
<g id="edge12" class="edge">
<title>D3ngComponentsModule&#45;&gt;D3ngListComponent </title>
<path fill="none" stroke="#000000" stroke-dasharray="5,2" d="M1378.0187,-169C1658.1973,-169 2569,-169 2569,-169 2569,-169 2569,-205.8939 2569,-205.8939"/>
<polygon fill="#000000" stroke="#000000" points="2565.5001,-205.8938 2569,-215.8939 2572.5001,-205.8939 2565.5001,-205.8938"/>
</g>
<!-- D3ngParallelCoordinatesComponent  -->
<g id="node14" class="node">
<title>D3ngParallelCoordinatesComponent </title>
<polygon fill="#fb8072" stroke="#000000" points="2482.3503,-252 2255.6497,-252 2255.6497,-216 2482.3503,-216 2482.3503,-252"/>
<text text-anchor="middle" x="2369" y="-229.8" font-family="Times,serif" font-size="14.00" fill="#000000">D3ngParallelCoordinatesComponent </text>
</g>
<!-- D3ngComponentsModule&#45;&gt;D3ngParallelCoordinatesComponent  -->
<g id="edge13" class="edge">
<title>D3ngComponentsModule&#45;&gt;D3ngParallelCoordinatesComponent </title>
<path fill="none" stroke="#000000" stroke-dasharray="5,2" d="M1378.0137,-172C1627.7509,-172 2369,-172 2369,-172 2369,-172 2369,-205.7333 2369,-205.7333"/>
<polygon fill="#000000" stroke="#000000" points="2365.5001,-205.7333 2369,-215.7333 2372.5001,-205.7333 2365.5001,-205.7333"/>
</g>
<!-- D3ngScatterPlotComponent  -->
<g id="node15" class="node">
<title>D3ngScatterPlotComponent </title>
<polygon fill="#fb8072" stroke="#000000" points="2237.8714,-252 2060.1286,-252 2060.1286,-216 2237.8714,-216 2237.8714,-252"/>
<text text-anchor="middle" x="2149" y="-229.8" font-family="Times,serif" font-size="14.00" fill="#000000">D3ngScatterPlotComponent </text>
</g>
<!-- D3ngComponentsModule&#45;&gt;D3ngScatterPlotComponent  -->
<g id="edge14" class="edge">
<title>D3ngComponentsModule&#45;&gt;D3ngScatterPlotComponent </title>
<path fill="none" stroke="#000000" stroke-dasharray="5,2" d="M1377.9222,-175C1590.5957,-175 2149,-175 2149,-175 2149,-175 2149,-205.9775 2149,-205.9775"/>
<polygon fill="#000000" stroke="#000000" points="2145.5001,-205.9774 2149,-215.9775 2152.5001,-205.9775 2145.5001,-205.9774"/>
</g>
<!-- D3ngTreeMapComponent  -->
<g id="node16" class="node">
<title>D3ngTreeMapComponent </title>
<polygon fill="#fb8072" stroke="#000000" points="2042.7408,-252 1875.2592,-252 1875.2592,-216 2042.7408,-216 2042.7408,-252"/>
<text text-anchor="middle" x="1959" y="-229.8" font-family="Times,serif" font-size="14.00" fill="#000000">D3ngTreeMapComponent </text>
</g>
<!-- D3ngComponentsModule&#45;&gt;D3ngTreeMapComponent  -->
<g id="edge15" class="edge">
<title>D3ngComponentsModule&#45;&gt;D3ngTreeMapComponent </title>
<path fill="none" stroke="#000000" stroke-dasharray="5,2" d="M1377.7764,-178C1542.7453,-178 1902.9332,-178 1902.9332,-178 1902.9332,-178 1902.9332,-205.973 1902.9332,-205.973"/>
<polygon fill="#000000" stroke="#000000" points="1899.4333,-205.973 1902.9332,-215.973 1906.4333,-205.973 1899.4333,-205.973"/>
</g>
<!-- D3ngRadialEdgeBundlingComponent  -->
<g id="node17" class="node">
<title>D3ngRadialEdgeBundlingComponent </title>
<polygon fill="#fb8072" stroke="#000000" points="1857.8713,-252 1624.1287,-252 1624.1287,-216 1857.8713,-216 1857.8713,-252"/>
<text text-anchor="middle" x="1741" y="-229.8" font-family="Times,serif" font-size="14.00" fill="#000000">D3ngRadialEdgeBundlingComponent </text>
</g>
<!-- D3ngComponentsModule&#45;&gt;D3ngRadialEdgeBundlingComponent  -->
<g id="edge16" class="edge">
<title>D3ngComponentsModule&#45;&gt;D3ngRadialEdgeBundlingComponent </title>
<path fill="none" stroke="#000000" stroke-dasharray="5,2" d="M1378.114,-181C1476.2784,-181 1628.5819,-181 1628.5819,-181 1628.5819,-181 1628.5819,-205.7604 1628.5819,-205.7604"/>
<polygon fill="#000000" stroke="#000000" points="1625.0819,-205.7604 1628.5819,-215.7604 1632.0819,-205.7604 1625.0819,-205.7604"/>
</g>
<!-- D3ngChordDiagramComponent  -->
<g id="node18" class="node">
<title>D3ngChordDiagramComponent </title>
<polygon fill="#fb8072" stroke="#000000" points="1605.9138,-252 1406.0862,-252 1406.0862,-216 1605.9138,-216 1605.9138,-252"/>
<text text-anchor="middle" x="1506" y="-229.8" font-family="Times,serif" font-size="14.00" fill="#000000">D3ngChordDiagramComponent </text>
</g>
<!-- D3ngComponentsModule&#45;&gt;D3ngChordDiagramComponent  -->
<g id="edge17" class="edge">
<title>D3ngComponentsModule&#45;&gt;D3ngChordDiagramComponent </title>
<path fill="none" stroke="#000000" stroke-dasharray="5,2" d="M1378.1046,-184C1412.7318,-184 1445.3221,-184 1445.3221,-184 1445.3221,-184 1445.3221,-205.9489 1445.3221,-205.9489"/>
<polygon fill="#000000" stroke="#000000" points="1441.8221,-205.9488 1445.3221,-215.9489 1448.8221,-205.9489 1441.8221,-205.9488"/>
</g>
<!-- D3ngForceGraphComponent  -->
<g id="node19" class="node">
<title>D3ngForceGraphComponent </title>
<polygon fill="#fb8072" stroke="#000000" points="1388.2933,-252 1205.7067,-252 1205.7067,-216 1388.2933,-216 1388.2933,-252"/>
<text text-anchor="middle" x="1297" y="-229.8" font-family="Times,serif" font-size="14.00" fill="#000000">D3ngForceGraphComponent </text>
</g>
<!-- D3ngComponentsModule&#45;&gt;D3ngForceGraphComponent  -->
<g id="edge18" class="edge">
<title>D3ngComponentsModule&#45;&gt;D3ngForceGraphComponent </title>
<path fill="none" stroke="#000000" stroke-dasharray="5,2" d="M1297,-187.1061C1297,-187.1061 1297,-205.991 1297,-205.991"/>
<polygon fill="#000000" stroke="#000000" points="1293.5001,-205.9909 1297,-215.991 1300.5001,-205.991 1293.5001,-205.9909"/>
</g>
<!-- D3ngCollapsibleIndentedTreeComponent  -->
<g id="node20" class="node">
<title>D3ngCollapsibleIndentedTreeComponent </title>
<polygon fill="#fb8072" stroke="#000000" points="1187.3348,-252 932.6652,-252 932.6652,-216 1187.3348,-216 1187.3348,-252"/>
<text text-anchor="middle" x="1060" y="-229.8" font-family="Times,serif" font-size="14.00" fill="#000000">D3ngCollapsibleIndentedTreeComponent </text>
</g>
<!-- D3ngComponentsModule&#45;&gt;D3ngCollapsibleIndentedTreeComponent  -->
<g id="edge19" class="edge">
<title>D3ngComponentsModule&#45;&gt;D3ngCollapsibleIndentedTreeComponent </title>
<path fill="none" stroke="#000000" stroke-dasharray="5,2" d="M1216.1922,-181C1172.0951,-181 1126.3912,-181 1126.3912,-181 1126.3912,-181 1126.3912,-205.7604 1126.3912,-205.7604"/>
<polygon fill="#000000" stroke="#000000" points="1122.8912,-205.7604 1126.3912,-215.7604 1129.8912,-205.7604 1122.8912,-205.7604"/>
</g>
<!-- D3ngSourceDirective  -->
<g id="node21" class="node">
<title>D3ngSourceDirective </title>
<polygon fill="#fb8072" stroke="#000000" points="914.5625,-252 773.4375,-252 773.4375,-216 914.5625,-216 914.5625,-252"/>
<text text-anchor="middle" x="844" y="-229.8" font-family="Times,serif" font-size="14.00" fill="#000000">D3ngSourceDirective </text>
</g>
<!-- D3ngComponentsModule&#45;&gt;D3ngSourceDirective  -->
<g id="edge20" class="edge">
<title>D3ngComponentsModule&#45;&gt;D3ngSourceDirective </title>
<path fill="none" stroke="#000000" stroke-dasharray="5,2" d="M1215.829,-178C1101.6873,-178 907.5328,-178 907.5328,-178 907.5328,-178 907.5328,-205.973 907.5328,-205.973"/>
<polygon fill="#000000" stroke="#000000" points="904.0329,-205.973 907.5328,-215.973 911.0329,-205.973 904.0329,-205.973"/>
</g>
<!-- D3ngHistogramComponent  -->
<g id="node22" class="node">
<title>D3ngHistogramComponent </title>
<polygon fill="#fb8072" stroke="#000000" points="755.5372,-252 580.4628,-252 580.4628,-216 755.5372,-216 755.5372,-252"/>
<text text-anchor="middle" x="668" y="-229.8" font-family="Times,serif" font-size="14.00" fill="#000000">D3ngHistogramComponent </text>
</g>
<!-- D3ngComponentsModule&#45;&gt;D3ngHistogramComponent  -->
<g id="edge21" class="edge">
<title>D3ngComponentsModule&#45;&gt;D3ngHistogramComponent </title>
<path fill="none" stroke="#000000" stroke-dasharray="5,2" d="M1216.0433,-175C1051.2036,-175 692.0635,-175 692.0635,-175 692.0635,-175 692.0635,-205.9775 692.0635,-205.9775"/>
<polygon fill="#000000" stroke="#000000" points="688.5636,-205.9774 692.0635,-215.9775 695.5636,-205.9775 688.5636,-205.9774"/>
</g>
<!-- D3ngGroupsComponent  -->
<g id="node23" class="node">
<title>D3ngGroupsComponent </title>
<polygon fill="#fb8072" stroke="#000000" points="562.6509,-252 405.3491,-252 405.3491,-216 562.6509,-216 562.6509,-252"/>
<text text-anchor="middle" x="484" y="-229.8" font-family="Times,serif" font-size="14.00" fill="#000000">D3ngGroupsComponent </text>
</g>
<!-- D3ngComponentsModule&#45;&gt;D3ngGroupsComponent  -->
<g id="edge22" class="edge">
<title>D3ngComponentsModule&#45;&gt;D3ngGroupsComponent </title>
<path fill="none" stroke="#000000" stroke-dasharray="5,2" d="M1216.2107,-172C1010.2314,-172 481.6029,-172 481.6029,-172 481.6029,-172 481.6029,-205.7333 481.6029,-205.7333"/>
<polygon fill="#000000" stroke="#000000" points="478.103,-205.7333 481.6029,-215.7333 485.103,-205.7333 478.103,-205.7333"/>
</g>
<!-- D3ngGroupSelectionComponent  -->
<g id="node24" class="node">
<title>D3ngGroupSelectionComponent </title>
<polygon fill="#fb8072" stroke="#000000" points="387.8045,-252 184.1955,-252 184.1955,-216 387.8045,-216 387.8045,-252"/>
<text text-anchor="middle" x="286" y="-229.8" font-family="Times,serif" font-size="14.00" fill="#000000">D3ngGroupSelectionComponent </text>
</g>
<!-- D3ngComponentsModule&#45;&gt;D3ngGroupSelectionComponent  -->
<g id="edge23" class="edge">
<title>D3ngComponentsModule&#45;&gt;D3ngGroupSelectionComponent </title>
<path fill="none" stroke="#000000" stroke-dasharray="5,2" d="M1215.9746,-169C976.0681,-169 286,-169 286,-169 286,-169 286,-205.8939 286,-205.8939"/>
<polygon fill="#000000" stroke="#000000" points="282.5001,-205.8938 286,-215.8939 289.5001,-205.8939 282.5001,-205.8938"/>
</g>
<!-- D3ngMapComponent  -->
<g id="node25" class="node">
<title>D3ngMapComponent </title>
<polygon fill="#fb8072" stroke="#000000" points="165.5988,-252 24.4012,-252 24.4012,-216 165.5988,-216 165.5988,-252"/>
<text text-anchor="middle" x="95" y="-229.8" font-family="Times,serif" font-size="14.00" fill="#000000">D3ngMapComponent </text>
</g>
<!-- D3ngComponentsModule&#45;&gt;D3ngMapComponent  -->
<g id="edge24" class="edge">
<title>D3ngComponentsModule&#45;&gt;D3ngMapComponent </title>
<path fill="none" stroke="#000000" stroke-dasharray="5,2" d="M1216.267,-166C946.7636,-166 95,-166 95,-166 95,-166 95,-205.7772 95,-205.7772"/>
<polygon fill="#000000" stroke="#000000" points="91.5001,-205.7772 95,-215.7772 98.5001,-205.7773 91.5001,-205.7772"/>
</g>
</g>
</svg>
