<?xml version="1.0" encoding="UTF-8" standalone="no"?>
<!DOCTYPE svg PUBLIC "-//W3C//DTD SVG 1.1//EN"
 "http://www.w3.org/Graphics/SVG/1.1/DTD/svg11.dtd">
<!-- Generated by graphviz version 2.40.1 (20161225.0304)
 -->
<!-- Title: dependencies Pages: 1 -->
<svg width="3085pt" height="284pt"
 viewBox="0.00 0.00 3085.00 284.00" xmlns="http://www.w3.org/2000/svg" xmlns:xlink="http://www.w3.org/1999/xlink">
<g id="graph0" class="graph" transform="scale(1 1) rotate(0) translate(4 280)">
<title>dependencies</title>
<polygon fill="#ffffff" stroke="transparent" points="-4,4 -4,-280 3081,-280 3081,4 -4,4"/>
<text text-anchor="start" x="1517.5091" y="-42.4" font-family="sans-serif" font-weight="bold" font-size="14.00" fill="#000000">Legend</text>
<polygon fill="#ffffb3" stroke="transparent" points="1304.5,-10 1304.5,-30 1324.5,-30 1324.5,-10 1304.5,-10"/>
<text text-anchor="start" x="1328.129" y="-15.4" font-family="sans-serif" font-size="14.00" fill="#000000"> &#160;Declarations</text>
<polygon fill="#8dd3c7" stroke="transparent" points="1417.5,-10 1417.5,-30 1437.5,-30 1437.5,-10 1417.5,-10"/>
<text text-anchor="start" x="1441.2251" y="-15.4" font-family="sans-serif" font-size="14.00" fill="#000000"> &#160;Module</text>
<polygon fill="#80b1d3" stroke="transparent" points="1503.5,-10 1503.5,-30 1523.5,-30 1523.5,-10 1503.5,-10"/>
<text text-anchor="start" x="1527.2812" y="-15.4" font-family="sans-serif" font-size="14.00" fill="#000000"> &#160;Bootstrap</text>
<polygon fill="#fdb462" stroke="transparent" points="1600.5,-10 1600.5,-30 1620.5,-30 1620.5,-10 1600.5,-10"/>
<text text-anchor="start" x="1624.1732" y="-15.4" font-family="sans-serif" font-size="14.00" fill="#000000"> &#160;Providers</text>
<polygon fill="#fb8072" stroke="transparent" points="1696.5,-10 1696.5,-30 1716.5,-30 1716.5,-10 1696.5,-10"/>
<text text-anchor="start" x="1720.2258" y="-15.4" font-family="sans-serif" font-size="14.00" fill="#000000"> &#160;Exports</text>
<g id="clust1" class="cluster">
<title>cluster_D3ngComponentsModule</title>
<polygon fill="none" stroke="#000000" stroke-dasharray="1,5" points="8,-70 8,-268 3069,-268 3069,-70 8,-70"/>
</g>
<g id="clust3" class="cluster">
<title>cluster_D3ngComponentsModule_imports</title>
<polygon fill="none" stroke="#000000" points="728,-78 728,-130 2246,-130 2246,-78 728,-78"/>
</g>
<g id="clust4" class="cluster">
<title>cluster_D3ngComponentsModule_exports</title>
<polygon fill="none" stroke="#000000" points="16,-208 16,-260 3061,-260 3061,-208 16,-208"/>
</g>
<!-- CommonModule -->
<g id="node1" class="node">
<title>CommonModule</title>
<polygon fill="#8dd3c7" stroke="#000000" points="2237.6681,-122 2234.6681,-126 2213.6681,-126 2210.6681,-122 2126.3319,-122 2126.3319,-86 2237.6681,-86 2237.6681,-122"/>
<text text-anchor="middle" x="2182" y="-99.8" font-family="Times,serif" font-size="14.00" fill="#000000">CommonModule</text>
</g>
<!-- D3ngComponentsModule -->
<g id="node12" class="node">
<title>D3ngComponentsModule</title>
<polygon fill="#8dd3c7" stroke="#000000" points="1555.934,-187 1552.934,-191 1531.934,-191 1528.934,-187 1394.066,-187 1394.066,-151 1555.934,-151 1555.934,-187"/>
<text text-anchor="middle" x="1475" y="-164.8" font-family="Times,serif" font-size="14.00" fill="#000000">D3ngComponentsModule</text>
</g>
<!-- CommonModule&#45;&gt;D3ngComponentsModule -->
<g id="edge1" class="edge">
<title>CommonModule&#45;&gt;D3ngComponentsModule</title>
<path fill="none" stroke="#000000" d="M2182,-122.0225C2182,-139.3734 2182,-163 2182,-163 2182,-163 1565.7574,-163 1565.7574,-163"/>
<polygon fill="#000000" stroke="#000000" points="1565.7575,-159.5001 1555.7574,-163 1565.7574,-166.5001 1565.7575,-159.5001"/>
</g>
<!-- BrowserModule -->
<g id="node2" class="node">
<title>BrowserModule</title>
<polygon fill="#8dd3c7" stroke="#000000" points="2108.4734,-122 2105.4734,-126 2084.4734,-126 2081.4734,-122 2001.5266,-122 2001.5266,-86 2108.4734,-86 2108.4734,-122"/>
<text text-anchor="middle" x="2055" y="-99.8" font-family="Times,serif" font-size="14.00" fill="#000000">BrowserModule</text>
</g>
<!-- BrowserModule&#45;&gt;D3ngComponentsModule -->
<g id="edge2" class="edge">
<title>BrowserModule&#45;&gt;D3ngComponentsModule</title>
<path fill="none" stroke="#000000" d="M2011.2351,-122.027C2011.2351,-138.3976 2011.2351,-160 2011.2351,-160 2011.2351,-160 1565.8604,-160 1565.8604,-160"/>
<polygon fill="#000000" stroke="#000000" points="1565.8604,-156.5001 1555.8604,-160 1565.8604,-163.5001 1565.8604,-156.5001"/>
</g>
<!-- BrowserAnimationsModule -->
<g id="node3" class="node">
<title>BrowserAnimationsModule</title>
<polygon fill="#8dd3c7" stroke="#000000" points="1983.3019,-122 1980.3019,-126 1959.3019,-126 1956.3019,-122 1810.6981,-122 1810.6981,-86 1983.3019,-86 1983.3019,-122"/>
<text text-anchor="middle" x="1897" y="-99.8" font-family="Times,serif" font-size="14.00" fill="#000000">BrowserAnimationsModule</text>
</g>
<!-- BrowserAnimationsModule&#45;&gt;D3ngComponentsModule -->
<g id="edge3" class="edge">
<title>BrowserAnimationsModule&#45;&gt;D3ngComponentsModule</title>
<path fill="none" stroke="#000000" d="M1815.9462,-122.2396C1815.9462,-137.5706 1815.9462,-157 1815.9462,-157 1815.9462,-157 1565.7995,-157 1565.7995,-157"/>
<polygon fill="#000000" stroke="#000000" points="1565.7995,-153.5001 1555.7995,-157 1565.7994,-160.5001 1565.7995,-153.5001"/>
</g>
<!-- MdSliderModule -->
<g id="node4" class="node">
<title>MdSliderModule</title>
<polygon fill="#8dd3c7" stroke="#000000" points="1793.4342,-122 1790.4342,-126 1769.4342,-126 1766.4342,-122 1680.5658,-122 1680.5658,-86 1793.4342,-86 1793.4342,-122"/>
<text text-anchor="middle" x="1737" y="-99.8" font-family="Times,serif" font-size="14.00" fill="#000000">MdSliderModule</text>
</g>
<!-- MdSliderModule&#45;&gt;D3ngComponentsModule -->
<g id="edge4" class="edge">
<title>MdSliderModule&#45;&gt;D3ngComponentsModule</title>
<path fill="none" stroke="#000000" d="M1737,-122.0511C1737,-136.373 1737,-154 1737,-154 1737,-154 1565.7465,-154 1565.7465,-154"/>
<polygon fill="#000000" stroke="#000000" points="1565.7465,-150.5001 1555.7465,-154 1565.7464,-157.5001 1565.7465,-150.5001"/>
</g>
<!-- MdSelectModule -->
<g id="node5" class="node">
<title>MdSelectModule</title>
<polygon fill="#8dd3c7" stroke="#000000" points="1662.7022,-122 1659.7022,-126 1638.7022,-126 1635.7022,-122 1549.2978,-122 1549.2978,-86 1662.7022,-86 1662.7022,-122"/>
<text text-anchor="middle" x="1606" y="-99.8" font-family="Times,serif" font-size="14.00" fill="#000000">MdSelectModule</text>
</g>
<!-- MdSelectModule&#45;&gt;D3ngComponentsModule -->
<g id="edge5" class="edge">
<title>MdSelectModule&#45;&gt;D3ngComponentsModule</title>
<path fill="none" stroke="#000000" d="M1549.168,-104C1543.7978,-104 1540.3086,-104 1540.3086,-104 1540.3086,-104 1540.3086,-140.8939 1540.3086,-140.8939"/>
<polygon fill="#000000" stroke="#000000" points="1536.8086,-140.8938 1540.3086,-150.8939 1543.8086,-140.8939 1536.8086,-140.8938"/>
</g>
<!-- MdRadioModule -->
<g id="node6" class="node">
<title>MdRadioModule</title>
<polygon fill="#8dd3c7" stroke="#000000" points="1531.437,-122 1528.437,-126 1507.437,-126 1504.437,-122 1418.563,-122 1418.563,-86 1531.437,-86 1531.437,-122"/>
<text text-anchor="middle" x="1475" y="-99.8" font-family="Times,serif" font-size="14.00" fill="#000000">MdRadioModule</text>
</g>
<!-- MdRadioModule&#45;&gt;D3ngComponentsModule -->
<g id="edge6" class="edge">
<title>MdRadioModule&#45;&gt;D3ngComponentsModule</title>
<path fill="none" stroke="#000000" d="M1475,-122.1061C1475,-122.1061 1475,-140.991 1475,-140.991"/>
<polygon fill="#000000" stroke="#000000" points="1471.5001,-140.9909 1475,-150.991 1478.5001,-140.991 1471.5001,-140.9909"/>
</g>
<!-- MdButtonToggleModule -->
<g id="node7" class="node">
<title>MdButtonToggleModule</title>
<polygon fill="#8dd3c7" stroke="#000000" points="1400.2702,-122 1397.2702,-126 1376.2702,-126 1373.2702,-122 1243.7298,-122 1243.7298,-86 1400.2702,-86 1400.2702,-122"/>
<text text-anchor="middle" x="1322" y="-99.8" font-family="Times,serif" font-size="14.00" fill="#000000">MdButtonToggleModule</text>
</g>
<!-- MdButtonToggleModule&#45;&gt;D3ngComponentsModule -->
<g id="edge7" class="edge">
<title>MdButtonToggleModule&#45;&gt;D3ngComponentsModule</title>
<path fill="none" stroke="#000000" d="M1400.5404,-104C1406.1074,-104 1409.5835,-104 1409.5835,-104 1409.5835,-104 1409.5835,-140.8939 1409.5835,-140.8939"/>
<polygon fill="#000000" stroke="#000000" points="1406.0835,-140.8938 1409.5835,-150.8939 1413.0835,-140.8939 1406.0835,-140.8938"/>
</g>
<!-- MdSlideToggleModule -->
<g id="node8" class="node">
<title>MdSlideToggleModule</title>
<polygon fill="#8dd3c7" stroke="#000000" points="1225.9312,-122 1222.9312,-126 1201.9312,-126 1198.9312,-122 1078.0688,-122 1078.0688,-86 1225.9312,-86 1225.9312,-122"/>
<text text-anchor="middle" x="1152" y="-99.8" font-family="Times,serif" font-size="14.00" fill="#000000">MdSlideToggleModule</text>
</g>
<!-- MdSlideToggleModule&#45;&gt;D3ngComponentsModule -->
<g id="edge8" class="edge">
<title>MdSlideToggleModule&#45;&gt;D3ngComponentsModule</title>
<path fill="none" stroke="#000000" d="M1206.9672,-122.0511C1206.9672,-136.373 1206.9672,-154 1206.9672,-154 1206.9672,-154 1384.2178,-154 1384.2178,-154"/>
<polygon fill="#000000" stroke="#000000" points="1384.2179,-157.5001 1394.2178,-154 1384.2178,-150.5001 1384.2179,-157.5001"/>
</g>
<!-- MdInputModule -->
<g id="node9" class="node">
<title>MdInputModule</title>
<polygon fill="#8dd3c7" stroke="#000000" points="1060.0465,-122 1057.0465,-126 1036.0465,-126 1033.0465,-122 951.9535,-122 951.9535,-86 1060.0465,-86 1060.0465,-122"/>
<text text-anchor="middle" x="1006" y="-99.8" font-family="Times,serif" font-size="14.00" fill="#000000">MdInputModule</text>
</g>
<!-- MdInputModule&#45;&gt;D3ngComponentsModule -->
<g id="edge9" class="edge">
<title>MdInputModule&#45;&gt;D3ngComponentsModule</title>
<path fill="none" stroke="#000000" d="M1027.8771,-122.2396C1027.8771,-137.5706 1027.8771,-157 1027.8771,-157 1027.8771,-157 1384.0294,-157 1384.0294,-157"/>
<polygon fill="#000000" stroke="#000000" points="1384.0295,-160.5001 1394.0294,-157 1384.0294,-153.5001 1384.0295,-160.5001"/>
</g>
<!-- FormsModule -->
<g id="node10" class="node">
<title>FormsModule</title>
<polygon fill="#8dd3c7" stroke="#000000" points="933.8288,-122 930.8288,-126 909.8288,-126 906.8288,-122 838.1712,-122 838.1712,-86 933.8288,-86 933.8288,-122"/>
<text text-anchor="middle" x="886" y="-99.8" font-family="Times,serif" font-size="14.00" fill="#000000">FormsModule</text>
</g>
<!-- FormsModule&#45;&gt;D3ngComponentsModule -->
<g id="edge10" class="edge">
<title>FormsModule&#45;&gt;D3ngComponentsModule</title>
<path fill="none" stroke="#000000" d="M886,-122.027C886,-138.3976 886,-160 886,-160 886,-160 1384.029,-160 1384.029,-160"/>
<polygon fill="#000000" stroke="#000000" points="1384.029,-163.5001 1394.029,-160 1384.029,-156.5001 1384.029,-163.5001"/>
</g>
<!-- HttpModule -->
<g id="node11" class="node">
<title>HttpModule</title>
<polygon fill="#8dd3c7" stroke="#000000" points="820.4387,-122 817.4387,-126 796.4387,-126 793.4387,-122 735.5613,-122 735.5613,-86 820.4387,-86 820.4387,-122"/>
<text text-anchor="middle" x="778" y="-99.8" font-family="Times,serif" font-size="14.00" fill="#000000">HttpModule</text>
</g>
<!-- HttpModule&#45;&gt;D3ngComponentsModule -->
<g id="edge11" class="edge">
<title>HttpModule&#45;&gt;D3ngComponentsModule</title>
<path fill="none" stroke="#000000" d="M811.5605,-122.0225C811.5605,-139.3734 811.5605,-163 811.5605,-163 811.5605,-163 1383.9812,-163 1383.9812,-163"/>
<polygon fill="#000000" stroke="#000000" points="1383.9812,-166.5001 1393.9812,-163 1383.9812,-159.5001 1383.9812,-166.5001"/>
</g>
<!-- D3ngListComponent  -->
<g id="node13" class="node">
<title>D3ngListComponent </title>
<polygon fill="#fb8072" stroke="#000000" points="3052.7177,-252 2915.2823,-252 2915.2823,-216 3052.7177,-216 3052.7177,-252"/>
<text text-anchor="middle" x="2984" y="-229.8" font-family="Times,serif" font-size="14.00" fill="#000000">D3ngListComponent </text>
</g>
<!-- D3ngComponentsModule&#45;&gt;D3ngListComponent  -->
<g id="edge12" class="edge">
<title>D3ngComponentsModule&#45;&gt;D3ngListComponent </title>
<path fill="none" stroke="#000000" stroke-dasharray="5,2" d="M1555.8635,-166C1868.9319,-166 2984,-166 2984,-166 2984,-166 2984,-205.7772 2984,-205.7772"/>
<polygon fill="#000000" stroke="#000000" points="2980.5001,-205.7772 2984,-215.7772 2987.5001,-205.7773 2980.5001,-205.7772"/>
</g>
<!-- D3ngParallelCoordinatesComponent  -->
<g id="node14" class="node">
<title>D3ngParallelCoordinatesComponent </title>
<polygon fill="#fb8072" stroke="#000000" points="2897.3503,-252 2670.6497,-252 2670.6497,-216 2897.3503,-216 2897.3503,-252"/>
<text text-anchor="middle" x="2784" y="-229.8" font-family="Times,serif" font-size="14.00" fill="#000000">D3ngParallelCoordinatesComponent </text>
</g>
<!-- D3ngComponentsModule&#45;&gt;D3ngParallelCoordinatesComponent  -->
<g id="edge13" class="edge">
<title>D3ngComponentsModule&#45;&gt;D3ngParallelCoordinatesComponent </title>
<path fill="none" stroke="#000000" stroke-dasharray="5,2" d="M1555.896,-169C1841.2875,-169 2784,-169 2784,-169 2784,-169 2784,-205.8939 2784,-205.8939"/>
<polygon fill="#000000" stroke="#000000" points="2780.5001,-205.8938 2784,-215.8939 2787.5001,-205.8939 2780.5001,-205.8938"/>
</g>
<!-- D3ngScatterPlotComponent  -->
<g id="node15" class="node">
<title>D3ngScatterPlotComponent </title>
<polygon fill="#fb8072" stroke="#000000" points="2652.8714,-252 2475.1286,-252 2475.1286,-216 2652.8714,-216 2652.8714,-252"/>
<text text-anchor="middle" x="2564" y="-229.8" font-family="Times,serif" font-size="14.00" fill="#000000">D3ngScatterPlotComponent </text>
</g>
<!-- D3ngComponentsModule&#45;&gt;D3ngScatterPlotComponent  -->
<g id="edge14" class="edge">
<title>D3ngComponentsModule&#45;&gt;D3ngScatterPlotComponent </title>
<path fill="none" stroke="#000000" stroke-dasharray="5,2" d="M1555.9623,-172C1808.3407,-172 2564,-172 2564,-172 2564,-172 2564,-205.7333 2564,-205.7333"/>
<polygon fill="#000000" stroke="#000000" points="2560.5001,-205.7333 2564,-215.7333 2567.5001,-205.7333 2560.5001,-205.7333"/>
</g>
<!-- D3ngTreeMapComponent  -->
<g id="node16" class="node">
<title>D3ngTreeMapComponent </title>
<polygon fill="#fb8072" stroke="#000000" points="2457.7408,-252 2290.2592,-252 2290.2592,-216 2457.7408,-216 2457.7408,-252"/>
<text text-anchor="middle" x="2374" y="-229.8" font-family="Times,serif" font-size="14.00" fill="#000000">D3ngTreeMapComponent </text>
</g>
<!-- D3ngComponentsModule&#45;&gt;D3ngTreeMapComponent  -->
<g id="edge15" class="edge">
<title>D3ngComponentsModule&#45;&gt;D3ngTreeMapComponent </title>
<path fill="none" stroke="#000000" stroke-dasharray="5,2" d="M1555.9682,-175C1776.9476,-175 2374,-175 2374,-175 2374,-175 2374,-205.9775 2374,-205.9775"/>
<polygon fill="#000000" stroke="#000000" points="2370.5001,-205.9774 2374,-215.9775 2377.5001,-205.9775 2370.5001,-205.9774"/>
</g>
<!-- D3ngRadialEdgeBundlingComponent  -->
<g id="node17" class="node">
<title>D3ngRadialEdgeBundlingComponent </title>
<polygon fill="#fb8072" stroke="#000000" points="2272.8713,-252 2039.1287,-252 2039.1287,-216 2272.8713,-216 2272.8713,-252"/>
<text text-anchor="middle" x="2156" y="-229.8" font-family="Times,serif" font-size="14.00" fill="#000000">D3ngRadialEdgeBundlingComponent </text>
</g>
<!-- D3ngComponentsModule&#45;&gt;D3ngRadialEdgeBundlingComponent  -->
<g id="edge16" class="edge">
<title>D3ngComponentsModule&#45;&gt;D3ngRadialEdgeBundlingComponent </title>
<path fill="none" stroke="#000000" stroke-dasharray="5,2" d="M1555.7704,-178C1719.2446,-178 2073.9006,-178 2073.9006,-178 2073.9006,-178 2073.9006,-205.973 2073.9006,-205.973"/>
<polygon fill="#000000" stroke="#000000" points="2070.4007,-205.973 2073.9006,-215.973 2077.4007,-205.973 2070.4007,-205.973"/>
</g>
<!-- D3ngChordDiagramComponent  -->
<g id="node18" class="node">
<title>D3ngChordDiagramComponent </title>
<polygon fill="#fb8072" stroke="#000000" points="2020.9138,-252 1821.0862,-252 1821.0862,-216 2020.9138,-216 2020.9138,-252"/>
<text text-anchor="middle" x="1921" y="-229.8" font-family="Times,serif" font-size="14.00" fill="#000000">D3ngChordDiagramComponent </text>
</g>
<!-- D3ngComponentsModule&#45;&gt;D3ngChordDiagramComponent  -->
<g id="edge17" class="edge">
<title>D3ngComponentsModule&#45;&gt;D3ngChordDiagramComponent </title>
<path fill="none" stroke="#000000" stroke-dasharray="5,2" d="M1555.8358,-181C1679.6556,-181 1902.097,-181 1902.097,-181 1902.097,-181 1902.097,-205.7604 1902.097,-205.7604"/>
<polygon fill="#000000" stroke="#000000" points="1898.597,-205.7604 1902.097,-215.7604 1905.597,-205.7604 1898.597,-205.7604"/>
</g>
<!-- D3ngForceGraphComponent  -->
<g id="node19" class="node">
<title>D3ngForceGraphComponent </title>
<polygon fill="#fb8072" stroke="#000000" points="1803.2933,-252 1620.7067,-252 1620.7067,-216 1803.2933,-216 1803.2933,-252"/>
<text text-anchor="middle" x="1712" y="-229.8" font-family="Times,serif" font-size="14.00" fill="#000000">D3ngForceGraphComponent </text>
</g>
<!-- D3ngComponentsModule&#45;&gt;D3ngForceGraphComponent  -->
<g id="edge18" class="edge">
<title>D3ngComponentsModule&#45;&gt;D3ngForceGraphComponent </title>
<path fill="none" stroke="#000000" stroke-dasharray="5,2" d="M1555.8609,-184C1598.3088,-184 1641.6022,-184 1641.6022,-184 1641.6022,-184 1641.6022,-205.9489 1641.6022,-205.9489"/>
<polygon fill="#000000" stroke="#000000" points="1638.1023,-205.9488 1641.6022,-215.9489 1645.1023,-205.9489 1638.1023,-205.9488"/>
</g>
<!-- D3ngCollapsibleIndentedTreeComponent  -->
<g id="node20" class="node">
<title>D3ngCollapsibleIndentedTreeComponent </title>
<polygon fill="#fb8072" stroke="#000000" points="1602.3348,-252 1347.6652,-252 1347.6652,-216 1602.3348,-216 1602.3348,-252"/>
<text text-anchor="middle" x="1475" y="-229.8" font-family="Times,serif" font-size="14.00" fill="#000000">D3ngCollapsibleIndentedTreeComponent </text>
</g>
<!-- D3ngComponentsModule&#45;&gt;D3ngCollapsibleIndentedTreeComponent  -->
<g id="edge19" class="edge">
<title>D3ngComponentsModule&#45;&gt;D3ngCollapsibleIndentedTreeComponent </title>
<path fill="none" stroke="#000000" stroke-dasharray="5,2" d="M1475,-187.1061C1475,-187.1061 1475,-205.991 1475,-205.991"/>
<polygon fill="#000000" stroke="#000000" points="1471.5001,-205.9909 1475,-215.991 1478.5001,-205.991 1471.5001,-205.9909"/>
</g>
<!-- D3ngSourceDirective  -->
<g id="node21" class="node">
<title>D3ngSourceDirective </title>
<polygon fill="#fb8072" stroke="#000000" points="1329.5625,-252 1188.4375,-252 1188.4375,-216 1329.5625,-216 1329.5625,-252"/>
<text text-anchor="middle" x="1259" y="-229.8" font-family="Times,serif" font-size="14.00" fill="#000000">D3ngSourceDirective </text>
</g>
<!-- D3ngComponentsModule&#45;&gt;D3ngSourceDirective  -->
<g id="edge20" class="edge">
<title>D3ngComponentsModule&#45;&gt;D3ngSourceDirective </title>
<path fill="none" stroke="#000000" stroke-dasharray="5,2" d="M1394.0502,-184C1343.0139,-184 1286.698,-184 1286.698,-184 1286.698,-184 1286.698,-205.9489 1286.698,-205.9489"/>
<polygon fill="#000000" stroke="#000000" points="1283.198,-205.9488 1286.698,-215.9489 1290.198,-205.9489 1283.198,-205.9488"/>
</g>
<!-- D3ngHistogramComponent  -->
<g id="node22" class="node">
<title>D3ngHistogramComponent </title>
<polygon fill="#fb8072" stroke="#000000" points="1170.5372,-252 995.4628,-252 995.4628,-216 1170.5372,-216 1170.5372,-252"/>
<text text-anchor="middle" x="1083" y="-229.8" font-family="Times,serif" font-size="14.00" fill="#000000">D3ngHistogramComponent </text>
</g>
<!-- D3ngComponentsModule&#45;&gt;D3ngHistogramComponent  -->
<g id="edge21" class="edge">
<title>D3ngComponentsModule&#45;&gt;D3ngHistogramComponent </title>
<path fill="none" stroke="#000000" stroke-dasharray="5,2" d="M1394.1254,-181C1290.5853,-181 1124.4016,-181 1124.4016,-181 1124.4016,-181 1124.4016,-205.7604 1124.4016,-205.7604"/>
<polygon fill="#000000" stroke="#000000" points="1120.9017,-205.7604 1124.4016,-215.7604 1127.9017,-205.7604 1120.9017,-205.7604"/>
</g>
<!-- D3ngGroupsComponent  -->
<g id="node23" class="node">
<title>D3ngGroupsComponent </title>
<polygon fill="#fb8072" stroke="#000000" points="977.6509,-252 820.3491,-252 820.3491,-216 977.6509,-216 977.6509,-252"/>
<text text-anchor="middle" x="899" y="-229.8" font-family="Times,serif" font-size="14.00" fill="#000000">D3ngGroupsComponent </text>
</g>
<!-- D3ngComponentsModule&#45;&gt;D3ngGroupsComponent  -->
<g id="edge22" class="edge">
<title>D3ngComponentsModule&#45;&gt;D3ngGroupsComponent </title>
<path fill="none" stroke="#000000" stroke-dasharray="5,2" d="M1394.1337,-178C1250.2292,-178 964.6513,-178 964.6513,-178 964.6513,-178 964.6513,-205.973 964.6513,-205.973"/>
<polygon fill="#000000" stroke="#000000" points="961.1514,-205.973 964.6513,-215.973 968.1514,-205.973 961.1514,-205.973"/>
</g>
<!-- D3ngGroupSelectionComponent  -->
<g id="node24" class="node">
<title>D3ngGroupSelectionComponent </title>
<polygon fill="#fb8072" stroke="#000000" points="802.8045,-252 599.1955,-252 599.1955,-216 802.8045,-216 802.8045,-252"/>
<text text-anchor="middle" x="701" y="-229.8" font-family="Times,serif" font-size="14.00" fill="#000000">D3ngGroupSelectionComponent </text>
</g>
<!-- D3ngComponentsModule&#45;&gt;D3ngGroupSelectionComponent  -->
<g id="edge23" class="edge">
<title>D3ngComponentsModule&#45;&gt;D3ngGroupSelectionComponent </title>
<path fill="none" stroke="#000000" stroke-dasharray="5,2" d="M1394.052,-175C1208.6984,-175 769.3417,-175 769.3417,-175 769.3417,-175 769.3417,-205.9775 769.3417,-205.9775"/>
<polygon fill="#000000" stroke="#000000" points="765.8418,-205.9774 769.3417,-215.9775 772.8418,-205.9775 765.8418,-205.9774"/>
</g>
<!-- D3ngMapComponent  -->
<g id="node25" class="node">
<title>D3ngMapComponent </title>
<polygon fill="#fb8072" stroke="#000000" points="580.5988,-252 439.4012,-252 439.4012,-216 580.5988,-216 580.5988,-252"/>
<text text-anchor="middle" x="510" y="-229.8" font-family="Times,serif" font-size="14.00" fill="#000000">D3ngMapComponent </text>
</g>
<!-- D3ngComponentsModule&#45;&gt;D3ngMapComponent  -->
<g id="edge24" class="edge">
<title>D3ngComponentsModule&#45;&gt;D3ngMapComponent </title>
<path fill="none" stroke="#000000" stroke-dasharray="5,2" d="M1393.9708,-172C1161.6819,-172 510,-172 510,-172 510,-172 510,-205.7333 510,-205.7333"/>
<polygon fill="#000000" stroke="#000000" points="506.5001,-205.7333 510,-215.7333 513.5001,-205.7333 506.5001,-205.7333"/>
</g>
<!-- D3ngBubbleHistogramComponent  -->
<g id="node26" class="node">
<title>D3ngBubbleHistogramComponent </title>
<polygon fill="#fb8072" stroke="#000000" points="420.9795,-252 205.0205,-252 205.0205,-216 420.9795,-216 420.9795,-252"/>
<text text-anchor="middle" x="313" y="-229.8" font-family="Times,serif" font-size="14.00" fill="#000000">D3ngBubbleHistogramComponent </text>
</g>
<!-- D3ngComponentsModule&#45;&gt;D3ngBubbleHistogramComponent  -->
<g id="edge25" class="edge">
<title>D3ngComponentsModule&#45;&gt;D3ngBubbleHistogramComponent </title>
<path fill="none" stroke="#000000" stroke-dasharray="5,2" d="M1394.213,-169C1130.6973,-169 313,-169 313,-169 313,-169 313,-205.8939 313,-205.8939"/>
<polygon fill="#000000" stroke="#000000" points="309.5001,-205.8938 313,-215.8939 316.5001,-205.8939 309.5001,-205.8938"/>
</g>
<!-- D3ngPathPlotComponent  -->
<g id="node27" class="node">
<title>D3ngPathPlotComponent </title>
<polygon fill="#fb8072" stroke="#000000" points="187.8911,-252 24.1089,-252 24.1089,-216 187.8911,-216 187.8911,-252"/>
<text text-anchor="middle" x="106" y="-229.8" font-family="Times,serif" font-size="14.00" fill="#000000">D3ngPathPlotComponent </text>
</g>
<!-- D3ngComponentsModule&#45;&gt;D3ngPathPlotComponent  -->
<g id="edge26" class="edge">
<title>D3ngComponentsModule&#45;&gt;D3ngPathPlotComponent </title>
<path fill="none" stroke="#000000" stroke-dasharray="5,2" d="M1394.2215,-166C1100.4507,-166 106,-166 106,-166 106,-166 106,-205.7772 106,-205.7772"/>
<polygon fill="#000000" stroke="#000000" points="102.5001,-205.7772 106,-215.7772 109.5001,-205.7773 102.5001,-205.7772"/>
</g>
</g>
</svg>
